%TF.GenerationSoftware,KiCad,Pcbnew,(5.99.0-12896-g1860893d63)*%
%TF.CreationDate,2021-11-27T00:19:14+08:00*%
%TF.ProjectId,GD32_SPINE,47443332-5f53-4504-994e-452e6b696361,rev?*%
%TF.SameCoordinates,Original*%
%TF.FileFunction,Legend,Bot*%
%TF.FilePolarity,Positive*%
%FSLAX46Y46*%
G04 Gerber Fmt 4.6, Leading zero omitted, Abs format (unit mm)*
G04 Created by KiCad (PCBNEW (5.99.0-12896-g1860893d63)) date 2021-11-27 00:19:14*
%MOMM*%
%LPD*%
G01*
G04 APERTURE LIST*
%ADD10R,1.700000X1.700000*%
%ADD11O,1.700000X1.700000*%
%ADD12R,1.000000X1.000000*%
%ADD13O,1.000000X1.000000*%
%ADD14R,4.600000X2.000000*%
%ADD15O,4.200000X2.000000*%
%ADD16O,2.000000X4.200000*%
G04 APERTURE END LIST*
%LPC*%
D10*
%TO.C,J9*%
X141750000Y-84500000D03*
D11*
X141750000Y-87040000D03*
X141750000Y-89580000D03*
X141750000Y-92120000D03*
X141750000Y-94660000D03*
%TD*%
D10*
%TO.C,J6*%
X134500000Y-57250000D03*
D11*
X131960000Y-57250000D03*
X129420000Y-57250000D03*
X126880000Y-57250000D03*
X124340000Y-57250000D03*
X121800000Y-57250000D03*
X119260000Y-57250000D03*
X116720000Y-57250000D03*
X114180000Y-57250000D03*
X111640000Y-57250000D03*
%TD*%
D10*
%TO.C,J5*%
X135750000Y-86960000D03*
D11*
X135750000Y-89500000D03*
X135750000Y-92040000D03*
%TD*%
D12*
%TO.C,J13*%
X108300000Y-56200000D03*
D13*
X108300000Y-57470000D03*
X107030000Y-56200000D03*
X107030000Y-57470000D03*
X105760000Y-56200000D03*
X105760000Y-57470000D03*
X104490000Y-56200000D03*
X104490000Y-57470000D03*
X103220000Y-56200000D03*
X103220000Y-57470000D03*
%TD*%
D10*
%TO.C,J14*%
X111775000Y-97500000D03*
D11*
X109235000Y-97500000D03*
%TD*%
D10*
%TO.C,J11*%
X141750000Y-68725000D03*
D11*
X141750000Y-71265000D03*
%TD*%
D10*
%TO.C,J12*%
X147000000Y-68725000D03*
D11*
X147000000Y-71265000D03*
%TD*%
D10*
%TO.C,J3*%
X111500000Y-52000000D03*
D11*
X108960000Y-52000000D03*
X106420000Y-52000000D03*
X103880000Y-52000000D03*
%TD*%
D10*
%TO.C,J10*%
X147320000Y-84500000D03*
D11*
X147320000Y-87040000D03*
X147320000Y-89580000D03*
X147320000Y-92120000D03*
X147320000Y-94660000D03*
%TD*%
D10*
%TO.C,J4*%
X132000000Y-86960000D03*
D11*
X132000000Y-89500000D03*
X132000000Y-92040000D03*
%TD*%
D14*
%TO.C,J1*%
X144000000Y-64350000D03*
D15*
X144000000Y-58050000D03*
D16*
X139200000Y-61450000D03*
%TD*%
D10*
%TO.C,J8*%
X102000000Y-62000000D03*
D11*
X102000000Y-64540000D03*
X102000000Y-67080000D03*
X102000000Y-69620000D03*
X102000000Y-72160000D03*
X102000000Y-74700000D03*
X102000000Y-77240000D03*
X102000000Y-79780000D03*
X102000000Y-82320000D03*
X102000000Y-84860000D03*
X102000000Y-87400000D03*
X102000000Y-89940000D03*
X102000000Y-92480000D03*
X102000000Y-95020000D03*
%TD*%
D10*
%TO.C,J2*%
X134500000Y-52000000D03*
D11*
X131960000Y-52000000D03*
X129420000Y-52000000D03*
X126880000Y-52000000D03*
X124340000Y-52000000D03*
X121800000Y-52000000D03*
X119260000Y-52000000D03*
X116720000Y-52000000D03*
%TD*%
D10*
%TO.C,J7*%
X123275000Y-97500000D03*
D11*
X120735000Y-97500000D03*
%TD*%
M02*
