%TF.GenerationSoftware,KiCad,Pcbnew,(5.99.0-12896-g1860893d63)*%
%TF.CreationDate,2021-11-27T00:19:14+08:00*%
%TF.ProjectId,GD32_SPINE,47443332-5f53-4504-994e-452e6b696361,rev?*%
%TF.SameCoordinates,Original*%
%TF.FileFunction,Legend,Top*%
%TF.FilePolarity,Positive*%
%FSLAX46Y46*%
G04 Gerber Fmt 4.6, Leading zero omitted, Abs format (unit mm)*
G04 Created by KiCad (PCBNEW (5.99.0-12896-g1860893d63)) date 2021-11-27 00:19:14*
%MOMM*%
%LPD*%
G01*
G04 APERTURE LIST*
G04 Aperture macros list*
%AMRoundRect*
0 Rectangle with rounded corners*
0 $1 Rounding radius*
0 $2 $3 $4 $5 $6 $7 $8 $9 X,Y pos of 4 corners*
0 Add a 4 corners polygon primitive as box body*
4,1,4,$2,$3,$4,$5,$6,$7,$8,$9,$2,$3,0*
0 Add four circle primitives for the rounded corners*
1,1,$1+$1,$2,$3*
1,1,$1+$1,$4,$5*
1,1,$1+$1,$6,$7*
1,1,$1+$1,$8,$9*
0 Add four rect primitives between the rounded corners*
20,1,$1+$1,$2,$3,$4,$5,0*
20,1,$1+$1,$4,$5,$6,$7,0*
20,1,$1+$1,$6,$7,$8,$9,0*
20,1,$1+$1,$8,$9,$2,$3,0*%
G04 Aperture macros list end*
%ADD10C,0.150000*%
%ADD11C,0.120000*%
%ADD12R,1.700000X1.700000*%
%ADD13O,1.700000X1.700000*%
%ADD14RoundRect,0.237500X-0.237500X0.300000X-0.237500X-0.300000X0.237500X-0.300000X0.237500X0.300000X0*%
%ADD15RoundRect,0.237500X0.237500X-0.300000X0.237500X0.300000X-0.237500X0.300000X-0.237500X-0.300000X0*%
%ADD16R,1.000000X1.000000*%
%ADD17O,1.000000X1.000000*%
%ADD18RoundRect,0.250000X0.650000X-0.412500X0.650000X0.412500X-0.650000X0.412500X-0.650000X-0.412500X0*%
%ADD19RoundRect,0.150000X-0.150000X0.825000X-0.150000X-0.825000X0.150000X-0.825000X0.150000X0.825000X0*%
%ADD20RoundRect,0.237500X0.300000X0.237500X-0.300000X0.237500X-0.300000X-0.237500X0.300000X-0.237500X0*%
%ADD21R,1.200000X1.400000*%
%ADD22R,2.000000X1.500000*%
%ADD23R,2.000000X3.800000*%
%ADD24RoundRect,0.075000X0.662500X0.075000X-0.662500X0.075000X-0.662500X-0.075000X0.662500X-0.075000X0*%
%ADD25RoundRect,0.075000X0.075000X0.662500X-0.075000X0.662500X-0.075000X-0.662500X0.075000X-0.662500X0*%
%ADD26R,1.800000X1.000000*%
%ADD27R,4.600000X2.000000*%
%ADD28O,4.200000X2.000000*%
%ADD29O,2.000000X4.200000*%
G04 APERTURE END LIST*
D10*
X126109404Y-62585000D02*
X126014166Y-62537380D01*
X125871309Y-62537380D01*
X125728452Y-62585000D01*
X125633214Y-62680238D01*
X125585595Y-62775476D01*
X125537976Y-62965952D01*
X125537976Y-63108809D01*
X125585595Y-63299285D01*
X125633214Y-63394523D01*
X125728452Y-63489761D01*
X125871309Y-63537380D01*
X125966547Y-63537380D01*
X126109404Y-63489761D01*
X126157023Y-63442142D01*
X126157023Y-63108809D01*
X125966547Y-63108809D01*
X126585595Y-63537380D02*
X126585595Y-62537380D01*
X126823690Y-62537380D01*
X126966547Y-62585000D01*
X127061785Y-62680238D01*
X127109404Y-62775476D01*
X127157023Y-62965952D01*
X127157023Y-63108809D01*
X127109404Y-63299285D01*
X127061785Y-63394523D01*
X126966547Y-63489761D01*
X126823690Y-63537380D01*
X126585595Y-63537380D01*
X127490357Y-62537380D02*
X128109404Y-62537380D01*
X127776071Y-62918333D01*
X127918928Y-62918333D01*
X128014166Y-62965952D01*
X128061785Y-63013571D01*
X128109404Y-63108809D01*
X128109404Y-63346904D01*
X128061785Y-63442142D01*
X128014166Y-63489761D01*
X127918928Y-63537380D01*
X127633214Y-63537380D01*
X127537976Y-63489761D01*
X127490357Y-63442142D01*
X128490357Y-62632619D02*
X128537976Y-62585000D01*
X128633214Y-62537380D01*
X128871309Y-62537380D01*
X128966547Y-62585000D01*
X129014166Y-62632619D01*
X129061785Y-62727857D01*
X129061785Y-62823095D01*
X129014166Y-62965952D01*
X128442738Y-63537380D01*
X129061785Y-63537380D01*
X130204642Y-63489761D02*
X130347500Y-63537380D01*
X130585595Y-63537380D01*
X130680833Y-63489761D01*
X130728452Y-63442142D01*
X130776071Y-63346904D01*
X130776071Y-63251666D01*
X130728452Y-63156428D01*
X130680833Y-63108809D01*
X130585595Y-63061190D01*
X130395119Y-63013571D01*
X130299880Y-62965952D01*
X130252261Y-62918333D01*
X130204642Y-62823095D01*
X130204642Y-62727857D01*
X130252261Y-62632619D01*
X130299880Y-62585000D01*
X130395119Y-62537380D01*
X130633214Y-62537380D01*
X130776071Y-62585000D01*
X131204642Y-63537380D02*
X131204642Y-62537380D01*
X131585595Y-62537380D01*
X131680833Y-62585000D01*
X131728452Y-62632619D01*
X131776071Y-62727857D01*
X131776071Y-62870714D01*
X131728452Y-62965952D01*
X131680833Y-63013571D01*
X131585595Y-63061190D01*
X131204642Y-63061190D01*
X132204642Y-63537380D02*
X132204642Y-62537380D01*
X132680833Y-63537380D02*
X132680833Y-62537380D01*
X133252261Y-63537380D01*
X133252261Y-62537380D01*
X133728452Y-63013571D02*
X134061785Y-63013571D01*
X134204642Y-63537380D02*
X133728452Y-63537380D01*
X133728452Y-62537380D01*
X134204642Y-62537380D01*
X125918928Y-64623571D02*
X126061785Y-64671190D01*
X126109404Y-64718809D01*
X126157023Y-64814047D01*
X126157023Y-64956904D01*
X126109404Y-65052142D01*
X126061785Y-65099761D01*
X125966547Y-65147380D01*
X125585595Y-65147380D01*
X125585595Y-64147380D01*
X125918928Y-64147380D01*
X126014166Y-64195000D01*
X126061785Y-64242619D01*
X126109404Y-64337857D01*
X126109404Y-64433095D01*
X126061785Y-64528333D01*
X126014166Y-64575952D01*
X125918928Y-64623571D01*
X125585595Y-64623571D01*
X126490357Y-64480714D02*
X126728452Y-65147380D01*
X126966547Y-64480714D02*
X126728452Y-65147380D01*
X126633214Y-65385476D01*
X126585595Y-65433095D01*
X126490357Y-65480714D01*
X128061785Y-64861666D02*
X128537976Y-64861666D01*
X127966547Y-65147380D02*
X128299880Y-64147380D01*
X128633214Y-65147380D01*
X128918928Y-65099761D02*
X129014166Y-65147380D01*
X129204642Y-65147380D01*
X129299880Y-65099761D01*
X129347500Y-65004523D01*
X129347500Y-64956904D01*
X129299880Y-64861666D01*
X129204642Y-64814047D01*
X129061785Y-64814047D01*
X128966547Y-64766428D01*
X128918928Y-64671190D01*
X128918928Y-64623571D01*
X128966547Y-64528333D01*
X129061785Y-64480714D01*
X129204642Y-64480714D01*
X129299880Y-64528333D01*
X129776071Y-65147380D02*
X129776071Y-64147380D01*
X130204642Y-65147380D02*
X130204642Y-64623571D01*
X130157023Y-64528333D01*
X130061785Y-64480714D01*
X129918928Y-64480714D01*
X129823690Y-64528333D01*
X129776071Y-64575952D01*
X130823690Y-65147380D02*
X130728452Y-65099761D01*
X130680833Y-65004523D01*
X130680833Y-64147380D01*
X131585595Y-65099761D02*
X131490357Y-65147380D01*
X131299880Y-65147380D01*
X131204642Y-65099761D01*
X131157023Y-65004523D01*
X131157023Y-64623571D01*
X131204642Y-64528333D01*
X131299880Y-64480714D01*
X131490357Y-64480714D01*
X131585595Y-64528333D01*
X131633214Y-64623571D01*
X131633214Y-64718809D01*
X131157023Y-64814047D01*
X132442738Y-65099761D02*
X132347500Y-65147380D01*
X132157023Y-65147380D01*
X132061785Y-65099761D01*
X132014166Y-65004523D01*
X132014166Y-64623571D01*
X132061785Y-64528333D01*
X132157023Y-64480714D01*
X132347500Y-64480714D01*
X132442738Y-64528333D01*
X132490357Y-64623571D01*
X132490357Y-64718809D01*
X132014166Y-64814047D01*
X125585595Y-66757380D02*
X125585595Y-65757380D01*
X126157023Y-66757380D01*
X126157023Y-65757380D01*
X126776071Y-66757380D02*
X126680833Y-66709761D01*
X126633214Y-66662142D01*
X126585595Y-66566904D01*
X126585595Y-66281190D01*
X126633214Y-66185952D01*
X126680833Y-66138333D01*
X126776071Y-66090714D01*
X126918928Y-66090714D01*
X127014166Y-66138333D01*
X127061785Y-66185952D01*
X127109404Y-66281190D01*
X127109404Y-66566904D01*
X127061785Y-66662142D01*
X127014166Y-66709761D01*
X126918928Y-66757380D01*
X126776071Y-66757380D01*
X127442738Y-66090714D02*
X127680833Y-66757380D01*
X127918928Y-66090714D01*
X129014166Y-65852619D02*
X129061785Y-65805000D01*
X129157023Y-65757380D01*
X129395119Y-65757380D01*
X129490357Y-65805000D01*
X129537976Y-65852619D01*
X129585595Y-65947857D01*
X129585595Y-66043095D01*
X129537976Y-66185952D01*
X128966547Y-66757380D01*
X129585595Y-66757380D01*
X130442738Y-65757380D02*
X130252261Y-65757380D01*
X130157023Y-65805000D01*
X130109404Y-65852619D01*
X130014166Y-65995476D01*
X129966547Y-66185952D01*
X129966547Y-66566904D01*
X130014166Y-66662142D01*
X130061785Y-66709761D01*
X130157023Y-66757380D01*
X130347500Y-66757380D01*
X130442738Y-66709761D01*
X130490357Y-66662142D01*
X130537976Y-66566904D01*
X130537976Y-66328809D01*
X130490357Y-66233571D01*
X130442738Y-66185952D01*
X130347500Y-66138333D01*
X130157023Y-66138333D01*
X130061785Y-66185952D01*
X130014166Y-66233571D01*
X129966547Y-66328809D01*
X131014166Y-66709761D02*
X131014166Y-66757380D01*
X130966547Y-66852619D01*
X130918928Y-66900238D01*
X132157023Y-65852619D02*
X132204642Y-65805000D01*
X132299880Y-65757380D01*
X132537976Y-65757380D01*
X132633214Y-65805000D01*
X132680833Y-65852619D01*
X132728452Y-65947857D01*
X132728452Y-66043095D01*
X132680833Y-66185952D01*
X132109404Y-66757380D01*
X132728452Y-66757380D01*
X133347500Y-65757380D02*
X133442738Y-65757380D01*
X133537976Y-65805000D01*
X133585595Y-65852619D01*
X133633214Y-65947857D01*
X133680833Y-66138333D01*
X133680833Y-66376428D01*
X133633214Y-66566904D01*
X133585595Y-66662142D01*
X133537976Y-66709761D01*
X133442738Y-66757380D01*
X133347500Y-66757380D01*
X133252261Y-66709761D01*
X133204642Y-66662142D01*
X133157023Y-66566904D01*
X133109404Y-66376428D01*
X133109404Y-66138333D01*
X133157023Y-65947857D01*
X133204642Y-65852619D01*
X133252261Y-65805000D01*
X133347500Y-65757380D01*
X134061785Y-65852619D02*
X134109404Y-65805000D01*
X134204642Y-65757380D01*
X134442738Y-65757380D01*
X134537976Y-65805000D01*
X134585595Y-65852619D01*
X134633214Y-65947857D01*
X134633214Y-66043095D01*
X134585595Y-66185952D01*
X134014166Y-66757380D01*
X134633214Y-66757380D01*
X135585595Y-66757380D02*
X135014166Y-66757380D01*
X135299880Y-66757380D02*
X135299880Y-65757380D01*
X135204642Y-65900238D01*
X135109404Y-65995476D01*
X135014166Y-66043095D01*
X125442738Y-67367380D02*
X125776071Y-68367380D01*
X126109404Y-67367380D01*
X126823690Y-68319761D02*
X126728452Y-68367380D01*
X126537976Y-68367380D01*
X126442738Y-68319761D01*
X126395119Y-68224523D01*
X126395119Y-67843571D01*
X126442738Y-67748333D01*
X126537976Y-67700714D01*
X126728452Y-67700714D01*
X126823690Y-67748333D01*
X126871309Y-67843571D01*
X126871309Y-67938809D01*
X126395119Y-68034047D01*
X127299880Y-68367380D02*
X127299880Y-67700714D01*
X127299880Y-67891190D02*
X127347500Y-67795952D01*
X127395119Y-67748333D01*
X127490357Y-67700714D01*
X127585595Y-67700714D01*
X127871309Y-68319761D02*
X127966547Y-68367380D01*
X128157023Y-68367380D01*
X128252261Y-68319761D01*
X128299880Y-68224523D01*
X128299880Y-68176904D01*
X128252261Y-68081666D01*
X128157023Y-68034047D01*
X128014166Y-68034047D01*
X127918928Y-67986428D01*
X127871309Y-67891190D01*
X127871309Y-67843571D01*
X127918928Y-67748333D01*
X128014166Y-67700714D01*
X128157023Y-67700714D01*
X128252261Y-67748333D01*
X128728452Y-68367380D02*
X128728452Y-67700714D01*
X128728452Y-67367380D02*
X128680833Y-67415000D01*
X128728452Y-67462619D01*
X128776071Y-67415000D01*
X128728452Y-67367380D01*
X128728452Y-67462619D01*
X129347500Y-68367380D02*
X129252261Y-68319761D01*
X129204642Y-68272142D01*
X129157023Y-68176904D01*
X129157023Y-67891190D01*
X129204642Y-67795952D01*
X129252261Y-67748333D01*
X129347500Y-67700714D01*
X129490357Y-67700714D01*
X129585595Y-67748333D01*
X129633214Y-67795952D01*
X129680833Y-67891190D01*
X129680833Y-68176904D01*
X129633214Y-68272142D01*
X129585595Y-68319761D01*
X129490357Y-68367380D01*
X129347500Y-68367380D01*
X130109404Y-67700714D02*
X130109404Y-68367380D01*
X130109404Y-67795952D02*
X130157023Y-67748333D01*
X130252261Y-67700714D01*
X130395119Y-67700714D01*
X130490357Y-67748333D01*
X130537976Y-67843571D01*
X130537976Y-68367380D01*
X131966547Y-67367380D02*
X132061785Y-67367380D01*
X132157023Y-67415000D01*
X132204642Y-67462619D01*
X132252261Y-67557857D01*
X132299880Y-67748333D01*
X132299880Y-67986428D01*
X132252261Y-68176904D01*
X132204642Y-68272142D01*
X132157023Y-68319761D01*
X132061785Y-68367380D01*
X131966547Y-68367380D01*
X131871309Y-68319761D01*
X131823690Y-68272142D01*
X131776071Y-68176904D01*
X131728452Y-67986428D01*
X131728452Y-67748333D01*
X131776071Y-67557857D01*
X131823690Y-67462619D01*
X131871309Y-67415000D01*
X131966547Y-67367380D01*
X132728452Y-68272142D02*
X132776071Y-68319761D01*
X132728452Y-68367380D01*
X132680833Y-68319761D01*
X132728452Y-68272142D01*
X132728452Y-68367380D01*
X133157023Y-67462619D02*
X133204642Y-67415000D01*
X133299880Y-67367380D01*
X133537976Y-67367380D01*
X133633214Y-67415000D01*
X133680833Y-67462619D01*
X133728452Y-67557857D01*
X133728452Y-67653095D01*
X133680833Y-67795952D01*
X133109404Y-68367380D01*
X133728452Y-68367380D01*
%TO.C,J9*%
X141416666Y-81622380D02*
X141416666Y-82336666D01*
X141369047Y-82479523D01*
X141273809Y-82574761D01*
X141130952Y-82622380D01*
X141035714Y-82622380D01*
X141940476Y-82622380D02*
X142130952Y-82622380D01*
X142226190Y-82574761D01*
X142273809Y-82527142D01*
X142369047Y-82384285D01*
X142416666Y-82193809D01*
X142416666Y-81812857D01*
X142369047Y-81717619D01*
X142321428Y-81670000D01*
X142226190Y-81622380D01*
X142035714Y-81622380D01*
X141940476Y-81670000D01*
X141892857Y-81717619D01*
X141845238Y-81812857D01*
X141845238Y-82050952D01*
X141892857Y-82146190D01*
X141940476Y-82193809D01*
X142035714Y-82241428D01*
X142226190Y-82241428D01*
X142321428Y-82193809D01*
X142369047Y-82146190D01*
X142416666Y-82050952D01*
%TO.C,R5*%
X138702380Y-82166666D02*
X138226190Y-82500000D01*
X138702380Y-82738095D02*
X137702380Y-82738095D01*
X137702380Y-82357142D01*
X137750000Y-82261904D01*
X137797619Y-82214285D01*
X137892857Y-82166666D01*
X138035714Y-82166666D01*
X138130952Y-82214285D01*
X138178571Y-82261904D01*
X138226190Y-82357142D01*
X138226190Y-82738095D01*
X137702380Y-81261904D02*
X137702380Y-81738095D01*
X138178571Y-81785714D01*
X138130952Y-81738095D01*
X138083333Y-81642857D01*
X138083333Y-81404761D01*
X138130952Y-81309523D01*
X138178571Y-81261904D01*
X138273809Y-81214285D01*
X138511904Y-81214285D01*
X138607142Y-81261904D01*
X138654761Y-81309523D01*
X138702380Y-81404761D01*
X138702380Y-81642857D01*
X138654761Y-81738095D01*
X138607142Y-81785714D01*
%TO.C,J6*%
X136282380Y-57583333D02*
X136996666Y-57583333D01*
X137139523Y-57630952D01*
X137234761Y-57726190D01*
X137282380Y-57869047D01*
X137282380Y-57964285D01*
X136282380Y-56678571D02*
X136282380Y-56869047D01*
X136330000Y-56964285D01*
X136377619Y-57011904D01*
X136520476Y-57107142D01*
X136710952Y-57154761D01*
X137091904Y-57154761D01*
X137187142Y-57107142D01*
X137234761Y-57059523D01*
X137282380Y-56964285D01*
X137282380Y-56773809D01*
X137234761Y-56678571D01*
X137187142Y-56630952D01*
X137091904Y-56583333D01*
X136853809Y-56583333D01*
X136758571Y-56630952D01*
X136710952Y-56678571D01*
X136663333Y-56773809D01*
X136663333Y-56964285D01*
X136710952Y-57059523D01*
X136758571Y-57107142D01*
X136853809Y-57154761D01*
%TO.C,C1*%
X124107142Y-75666666D02*
X124154761Y-75714285D01*
X124202380Y-75857142D01*
X124202380Y-75952380D01*
X124154761Y-76095238D01*
X124059523Y-76190476D01*
X123964285Y-76238095D01*
X123773809Y-76285714D01*
X123630952Y-76285714D01*
X123440476Y-76238095D01*
X123345238Y-76190476D01*
X123250000Y-76095238D01*
X123202380Y-75952380D01*
X123202380Y-75857142D01*
X123250000Y-75714285D01*
X123297619Y-75666666D01*
X124202380Y-74714285D02*
X124202380Y-75285714D01*
X124202380Y-75000000D02*
X123202380Y-75000000D01*
X123345238Y-75095238D01*
X123440476Y-75190476D01*
X123488095Y-75285714D01*
%TO.C,R3*%
X133702380Y-82166666D02*
X133226190Y-82500000D01*
X133702380Y-82738095D02*
X132702380Y-82738095D01*
X132702380Y-82357142D01*
X132750000Y-82261904D01*
X132797619Y-82214285D01*
X132892857Y-82166666D01*
X133035714Y-82166666D01*
X133130952Y-82214285D01*
X133178571Y-82261904D01*
X133226190Y-82357142D01*
X133226190Y-82738095D01*
X132702380Y-81833333D02*
X132702380Y-81214285D01*
X133083333Y-81547619D01*
X133083333Y-81404761D01*
X133130952Y-81309523D01*
X133178571Y-81261904D01*
X133273809Y-81214285D01*
X133511904Y-81214285D01*
X133607142Y-81261904D01*
X133654761Y-81309523D01*
X133702380Y-81404761D01*
X133702380Y-81690476D01*
X133654761Y-81785714D01*
X133607142Y-81833333D01*
%TO.C,R7*%
X109202380Y-64916666D02*
X108726190Y-65250000D01*
X109202380Y-65488095D02*
X108202380Y-65488095D01*
X108202380Y-65107142D01*
X108250000Y-65011904D01*
X108297619Y-64964285D01*
X108392857Y-64916666D01*
X108535714Y-64916666D01*
X108630952Y-64964285D01*
X108678571Y-65011904D01*
X108726190Y-65107142D01*
X108726190Y-65488095D01*
X108202380Y-64583333D02*
X108202380Y-63916666D01*
X109202380Y-64345238D01*
%TO.C,J5*%
X135416666Y-84082380D02*
X135416666Y-84796666D01*
X135369047Y-84939523D01*
X135273809Y-85034761D01*
X135130952Y-85082380D01*
X135035714Y-85082380D01*
X136369047Y-84082380D02*
X135892857Y-84082380D01*
X135845238Y-84558571D01*
X135892857Y-84510952D01*
X135988095Y-84463333D01*
X136226190Y-84463333D01*
X136321428Y-84510952D01*
X136369047Y-84558571D01*
X136416666Y-84653809D01*
X136416666Y-84891904D01*
X136369047Y-84987142D01*
X136321428Y-85034761D01*
X136226190Y-85082380D01*
X135988095Y-85082380D01*
X135892857Y-85034761D01*
X135845238Y-84987142D01*
%TO.C,J13*%
X100952380Y-57644523D02*
X101666666Y-57644523D01*
X101809523Y-57692142D01*
X101904761Y-57787380D01*
X101952380Y-57930238D01*
X101952380Y-58025476D01*
X101952380Y-56644523D02*
X101952380Y-57215952D01*
X101952380Y-56930238D02*
X100952380Y-56930238D01*
X101095238Y-57025476D01*
X101190476Y-57120714D01*
X101238095Y-57215952D01*
X100952380Y-56311190D02*
X100952380Y-55692142D01*
X101333333Y-56025476D01*
X101333333Y-55882619D01*
X101380952Y-55787380D01*
X101428571Y-55739761D01*
X101523809Y-55692142D01*
X101761904Y-55692142D01*
X101857142Y-55739761D01*
X101904761Y-55787380D01*
X101952380Y-55882619D01*
X101952380Y-56168333D01*
X101904761Y-56263571D01*
X101857142Y-56311190D01*
%TO.C,C6*%
X133927142Y-70416666D02*
X133974761Y-70464285D01*
X134022380Y-70607142D01*
X134022380Y-70702380D01*
X133974761Y-70845238D01*
X133879523Y-70940476D01*
X133784285Y-70988095D01*
X133593809Y-71035714D01*
X133450952Y-71035714D01*
X133260476Y-70988095D01*
X133165238Y-70940476D01*
X133070000Y-70845238D01*
X133022380Y-70702380D01*
X133022380Y-70607142D01*
X133070000Y-70464285D01*
X133117619Y-70416666D01*
X133022380Y-69559523D02*
X133022380Y-69750000D01*
X133070000Y-69845238D01*
X133117619Y-69892857D01*
X133260476Y-69988095D01*
X133450952Y-70035714D01*
X133831904Y-70035714D01*
X133927142Y-69988095D01*
X133974761Y-69940476D01*
X134022380Y-69845238D01*
X134022380Y-69654761D01*
X133974761Y-69559523D01*
X133927142Y-69511904D01*
X133831904Y-69464285D01*
X133593809Y-69464285D01*
X133498571Y-69511904D01*
X133450952Y-69559523D01*
X133403333Y-69654761D01*
X133403333Y-69845238D01*
X133450952Y-69940476D01*
X133498571Y-69988095D01*
X133593809Y-70035714D01*
%TO.C,C5*%
X139607142Y-72916666D02*
X139654761Y-72964285D01*
X139702380Y-73107142D01*
X139702380Y-73202380D01*
X139654761Y-73345238D01*
X139559523Y-73440476D01*
X139464285Y-73488095D01*
X139273809Y-73535714D01*
X139130952Y-73535714D01*
X138940476Y-73488095D01*
X138845238Y-73440476D01*
X138750000Y-73345238D01*
X138702380Y-73202380D01*
X138702380Y-73107142D01*
X138750000Y-72964285D01*
X138797619Y-72916666D01*
X138702380Y-72011904D02*
X138702380Y-72488095D01*
X139178571Y-72535714D01*
X139130952Y-72488095D01*
X139083333Y-72392857D01*
X139083333Y-72154761D01*
X139130952Y-72059523D01*
X139178571Y-72011904D01*
X139273809Y-71964285D01*
X139511904Y-71964285D01*
X139607142Y-72011904D01*
X139654761Y-72059523D01*
X139702380Y-72154761D01*
X139702380Y-72392857D01*
X139654761Y-72488095D01*
X139607142Y-72535714D01*
%TO.C,J14*%
X113557380Y-98309523D02*
X114271666Y-98309523D01*
X114414523Y-98357142D01*
X114509761Y-98452380D01*
X114557380Y-98595238D01*
X114557380Y-98690476D01*
X114557380Y-97309523D02*
X114557380Y-97880952D01*
X114557380Y-97595238D02*
X113557380Y-97595238D01*
X113700238Y-97690476D01*
X113795476Y-97785714D01*
X113843095Y-97880952D01*
X113890714Y-96452380D02*
X114557380Y-96452380D01*
X113509761Y-96690476D02*
X114224047Y-96928571D01*
X114224047Y-96309523D01*
%TO.C,R4*%
X133722380Y-97176666D02*
X133246190Y-97510000D01*
X133722380Y-97748095D02*
X132722380Y-97748095D01*
X132722380Y-97367142D01*
X132770000Y-97271904D01*
X132817619Y-97224285D01*
X132912857Y-97176666D01*
X133055714Y-97176666D01*
X133150952Y-97224285D01*
X133198571Y-97271904D01*
X133246190Y-97367142D01*
X133246190Y-97748095D01*
X133055714Y-96319523D02*
X133722380Y-96319523D01*
X132674761Y-96557619D02*
X133389047Y-96795714D01*
X133389047Y-96176666D01*
%TO.C,C9*%
X107107142Y-64916666D02*
X107154761Y-64964285D01*
X107202380Y-65107142D01*
X107202380Y-65202380D01*
X107154761Y-65345238D01*
X107059523Y-65440476D01*
X106964285Y-65488095D01*
X106773809Y-65535714D01*
X106630952Y-65535714D01*
X106440476Y-65488095D01*
X106345238Y-65440476D01*
X106250000Y-65345238D01*
X106202380Y-65202380D01*
X106202380Y-65107142D01*
X106250000Y-64964285D01*
X106297619Y-64916666D01*
X107202380Y-64440476D02*
X107202380Y-64250000D01*
X107154761Y-64154761D01*
X107107142Y-64107142D01*
X106964285Y-64011904D01*
X106773809Y-63964285D01*
X106392857Y-63964285D01*
X106297619Y-64011904D01*
X106250000Y-64059523D01*
X106202380Y-64154761D01*
X106202380Y-64345238D01*
X106250000Y-64440476D01*
X106297619Y-64488095D01*
X106392857Y-64535714D01*
X106630952Y-64535714D01*
X106726190Y-64488095D01*
X106773809Y-64440476D01*
X106821428Y-64345238D01*
X106821428Y-64154761D01*
X106773809Y-64059523D01*
X106726190Y-64011904D01*
X106630952Y-63964285D01*
%TO.C,U3*%
X117952380Y-90761904D02*
X118761904Y-90761904D01*
X118857142Y-90714285D01*
X118904761Y-90666666D01*
X118952380Y-90571428D01*
X118952380Y-90380952D01*
X118904761Y-90285714D01*
X118857142Y-90238095D01*
X118761904Y-90190476D01*
X117952380Y-90190476D01*
X117952380Y-89809523D02*
X117952380Y-89190476D01*
X118333333Y-89523809D01*
X118333333Y-89380952D01*
X118380952Y-89285714D01*
X118428571Y-89238095D01*
X118523809Y-89190476D01*
X118761904Y-89190476D01*
X118857142Y-89238095D01*
X118904761Y-89285714D01*
X118952380Y-89380952D01*
X118952380Y-89666666D01*
X118904761Y-89761904D01*
X118857142Y-89809523D01*
%TO.C,C3*%
X128857142Y-82416666D02*
X128904761Y-82464285D01*
X128952380Y-82607142D01*
X128952380Y-82702380D01*
X128904761Y-82845238D01*
X128809523Y-82940476D01*
X128714285Y-82988095D01*
X128523809Y-83035714D01*
X128380952Y-83035714D01*
X128190476Y-82988095D01*
X128095238Y-82940476D01*
X128000000Y-82845238D01*
X127952380Y-82702380D01*
X127952380Y-82607142D01*
X128000000Y-82464285D01*
X128047619Y-82416666D01*
X127952380Y-82083333D02*
X127952380Y-81464285D01*
X128333333Y-81797619D01*
X128333333Y-81654761D01*
X128380952Y-81559523D01*
X128428571Y-81511904D01*
X128523809Y-81464285D01*
X128761904Y-81464285D01*
X128857142Y-81511904D01*
X128904761Y-81559523D01*
X128952380Y-81654761D01*
X128952380Y-81940476D01*
X128904761Y-82035714D01*
X128857142Y-82083333D01*
%TO.C,R9*%
X126833333Y-92382380D02*
X126500000Y-91906190D01*
X126261904Y-92382380D02*
X126261904Y-91382380D01*
X126642857Y-91382380D01*
X126738095Y-91430000D01*
X126785714Y-91477619D01*
X126833333Y-91572857D01*
X126833333Y-91715714D01*
X126785714Y-91810952D01*
X126738095Y-91858571D01*
X126642857Y-91906190D01*
X126261904Y-91906190D01*
X127309523Y-92382380D02*
X127500000Y-92382380D01*
X127595238Y-92334761D01*
X127642857Y-92287142D01*
X127738095Y-92144285D01*
X127785714Y-91953809D01*
X127785714Y-91572857D01*
X127738095Y-91477619D01*
X127690476Y-91430000D01*
X127595238Y-91382380D01*
X127404761Y-91382380D01*
X127309523Y-91430000D01*
X127261904Y-91477619D01*
X127214285Y-91572857D01*
X127214285Y-91810952D01*
X127261904Y-91906190D01*
X127309523Y-91953809D01*
X127404761Y-92001428D01*
X127595238Y-92001428D01*
X127690476Y-91953809D01*
X127738095Y-91906190D01*
X127785714Y-91810952D01*
%TO.C,J11*%
X140940476Y-65847380D02*
X140940476Y-66561666D01*
X140892857Y-66704523D01*
X140797619Y-66799761D01*
X140654761Y-66847380D01*
X140559523Y-66847380D01*
X141940476Y-66847380D02*
X141369047Y-66847380D01*
X141654761Y-66847380D02*
X141654761Y-65847380D01*
X141559523Y-65990238D01*
X141464285Y-66085476D01*
X141369047Y-66133095D01*
X142892857Y-66847380D02*
X142321428Y-66847380D01*
X142607142Y-66847380D02*
X142607142Y-65847380D01*
X142511904Y-65990238D01*
X142416666Y-66085476D01*
X142321428Y-66133095D01*
%TO.C,U4*%
X106452380Y-90761904D02*
X107261904Y-90761904D01*
X107357142Y-90714285D01*
X107404761Y-90666666D01*
X107452380Y-90571428D01*
X107452380Y-90380952D01*
X107404761Y-90285714D01*
X107357142Y-90238095D01*
X107261904Y-90190476D01*
X106452380Y-90190476D01*
X106785714Y-89285714D02*
X107452380Y-89285714D01*
X106404761Y-89523809D02*
X107119047Y-89761904D01*
X107119047Y-89142857D01*
%TO.C,Y1*%
X130476190Y-74726190D02*
X130952380Y-74726190D01*
X129952380Y-75059523D02*
X130476190Y-74726190D01*
X129952380Y-74392857D01*
X130952380Y-73535714D02*
X130952380Y-74107142D01*
X130952380Y-73821428D02*
X129952380Y-73821428D01*
X130095238Y-73916666D01*
X130190476Y-74011904D01*
X130238095Y-74107142D01*
%TO.C,J12*%
X146190476Y-65847380D02*
X146190476Y-66561666D01*
X146142857Y-66704523D01*
X146047619Y-66799761D01*
X145904761Y-66847380D01*
X145809523Y-66847380D01*
X147190476Y-66847380D02*
X146619047Y-66847380D01*
X146904761Y-66847380D02*
X146904761Y-65847380D01*
X146809523Y-65990238D01*
X146714285Y-66085476D01*
X146619047Y-66133095D01*
X147571428Y-65942619D02*
X147619047Y-65895000D01*
X147714285Y-65847380D01*
X147952380Y-65847380D01*
X148047619Y-65895000D01*
X148095238Y-65942619D01*
X148142857Y-66037857D01*
X148142857Y-66133095D01*
X148095238Y-66275952D01*
X147523809Y-66847380D01*
X148142857Y-66847380D01*
%TO.C,J3*%
X113282380Y-52333333D02*
X113996666Y-52333333D01*
X114139523Y-52380952D01*
X114234761Y-52476190D01*
X114282380Y-52619047D01*
X114282380Y-52714285D01*
X113282380Y-51952380D02*
X113282380Y-51333333D01*
X113663333Y-51666666D01*
X113663333Y-51523809D01*
X113710952Y-51428571D01*
X113758571Y-51380952D01*
X113853809Y-51333333D01*
X114091904Y-51333333D01*
X114187142Y-51380952D01*
X114234761Y-51428571D01*
X114282380Y-51523809D01*
X114282380Y-51809523D01*
X114234761Y-51904761D01*
X114187142Y-51952380D01*
%TO.C,R1*%
X115333333Y-87452380D02*
X115000000Y-86976190D01*
X114761904Y-87452380D02*
X114761904Y-86452380D01*
X115142857Y-86452380D01*
X115238095Y-86500000D01*
X115285714Y-86547619D01*
X115333333Y-86642857D01*
X115333333Y-86785714D01*
X115285714Y-86880952D01*
X115238095Y-86928571D01*
X115142857Y-86976190D01*
X114761904Y-86976190D01*
X116285714Y-87452380D02*
X115714285Y-87452380D01*
X116000000Y-87452380D02*
X116000000Y-86452380D01*
X115904761Y-86595238D01*
X115809523Y-86690476D01*
X115714285Y-86738095D01*
%TO.C,U2*%
X140488095Y-80202380D02*
X140488095Y-81011904D01*
X140535714Y-81107142D01*
X140583333Y-81154761D01*
X140678571Y-81202380D01*
X140869047Y-81202380D01*
X140964285Y-81154761D01*
X141011904Y-81107142D01*
X141059523Y-81011904D01*
X141059523Y-80202380D01*
X141488095Y-80297619D02*
X141535714Y-80250000D01*
X141630952Y-80202380D01*
X141869047Y-80202380D01*
X141964285Y-80250000D01*
X142011904Y-80297619D01*
X142059523Y-80392857D01*
X142059523Y-80488095D01*
X142011904Y-80630952D01*
X141440476Y-81202380D01*
X142059523Y-81202380D01*
%TO.C,C8*%
X133927142Y-77416666D02*
X133974761Y-77464285D01*
X134022380Y-77607142D01*
X134022380Y-77702380D01*
X133974761Y-77845238D01*
X133879523Y-77940476D01*
X133784285Y-77988095D01*
X133593809Y-78035714D01*
X133450952Y-78035714D01*
X133260476Y-77988095D01*
X133165238Y-77940476D01*
X133070000Y-77845238D01*
X133022380Y-77702380D01*
X133022380Y-77607142D01*
X133070000Y-77464285D01*
X133117619Y-77416666D01*
X133450952Y-76845238D02*
X133403333Y-76940476D01*
X133355714Y-76988095D01*
X133260476Y-77035714D01*
X133212857Y-77035714D01*
X133117619Y-76988095D01*
X133070000Y-76940476D01*
X133022380Y-76845238D01*
X133022380Y-76654761D01*
X133070000Y-76559523D01*
X133117619Y-76511904D01*
X133212857Y-76464285D01*
X133260476Y-76464285D01*
X133355714Y-76511904D01*
X133403333Y-76559523D01*
X133450952Y-76654761D01*
X133450952Y-76845238D01*
X133498571Y-76940476D01*
X133546190Y-76988095D01*
X133641428Y-77035714D01*
X133831904Y-77035714D01*
X133927142Y-76988095D01*
X133974761Y-76940476D01*
X134022380Y-76845238D01*
X134022380Y-76654761D01*
X133974761Y-76559523D01*
X133927142Y-76511904D01*
X133831904Y-76464285D01*
X133641428Y-76464285D01*
X133546190Y-76511904D01*
X133498571Y-76559523D01*
X133450952Y-76654761D01*
%TO.C,C7*%
X139607142Y-79916666D02*
X139654761Y-79964285D01*
X139702380Y-80107142D01*
X139702380Y-80202380D01*
X139654761Y-80345238D01*
X139559523Y-80440476D01*
X139464285Y-80488095D01*
X139273809Y-80535714D01*
X139130952Y-80535714D01*
X138940476Y-80488095D01*
X138845238Y-80440476D01*
X138750000Y-80345238D01*
X138702380Y-80202380D01*
X138702380Y-80107142D01*
X138750000Y-79964285D01*
X138797619Y-79916666D01*
X138702380Y-79583333D02*
X138702380Y-78916666D01*
X139702380Y-79345238D01*
%TO.C,U1*%
X115062095Y-79802380D02*
X115062095Y-80611904D01*
X115109714Y-80707142D01*
X115157333Y-80754761D01*
X115252571Y-80802380D01*
X115443047Y-80802380D01*
X115538285Y-80754761D01*
X115585904Y-80707142D01*
X115633523Y-80611904D01*
X115633523Y-79802380D01*
X116633523Y-80802380D02*
X116062095Y-80802380D01*
X116347809Y-80802380D02*
X116347809Y-79802380D01*
X116252571Y-79945238D01*
X116157333Y-80040476D01*
X116062095Y-80088095D01*
%TO.C,J10*%
X146510476Y-81622380D02*
X146510476Y-82336666D01*
X146462857Y-82479523D01*
X146367619Y-82574761D01*
X146224761Y-82622380D01*
X146129523Y-82622380D01*
X147510476Y-82622380D02*
X146939047Y-82622380D01*
X147224761Y-82622380D02*
X147224761Y-81622380D01*
X147129523Y-81765238D01*
X147034285Y-81860476D01*
X146939047Y-81908095D01*
X148129523Y-81622380D02*
X148224761Y-81622380D01*
X148320000Y-81670000D01*
X148367619Y-81717619D01*
X148415238Y-81812857D01*
X148462857Y-82003333D01*
X148462857Y-82241428D01*
X148415238Y-82431904D01*
X148367619Y-82527142D01*
X148320000Y-82574761D01*
X148224761Y-82622380D01*
X148129523Y-82622380D01*
X148034285Y-82574761D01*
X147986666Y-82527142D01*
X147939047Y-82431904D01*
X147891428Y-82241428D01*
X147891428Y-82003333D01*
X147939047Y-81812857D01*
X147986666Y-81717619D01*
X148034285Y-81670000D01*
X148129523Y-81622380D01*
%TO.C,C4*%
X128857142Y-76416666D02*
X128904761Y-76464285D01*
X128952380Y-76607142D01*
X128952380Y-76702380D01*
X128904761Y-76845238D01*
X128809523Y-76940476D01*
X128714285Y-76988095D01*
X128523809Y-77035714D01*
X128380952Y-77035714D01*
X128190476Y-76988095D01*
X128095238Y-76940476D01*
X128000000Y-76845238D01*
X127952380Y-76702380D01*
X127952380Y-76607142D01*
X128000000Y-76464285D01*
X128047619Y-76416666D01*
X128285714Y-75559523D02*
X128952380Y-75559523D01*
X127904761Y-75797619D02*
X128619047Y-76035714D01*
X128619047Y-75416666D01*
%TO.C,R6*%
X138952380Y-97176666D02*
X138476190Y-97510000D01*
X138952380Y-97748095D02*
X137952380Y-97748095D01*
X137952380Y-97367142D01*
X138000000Y-97271904D01*
X138047619Y-97224285D01*
X138142857Y-97176666D01*
X138285714Y-97176666D01*
X138380952Y-97224285D01*
X138428571Y-97271904D01*
X138476190Y-97367142D01*
X138476190Y-97748095D01*
X137952380Y-96319523D02*
X137952380Y-96510000D01*
X138000000Y-96605238D01*
X138047619Y-96652857D01*
X138190476Y-96748095D01*
X138380952Y-96795714D01*
X138761904Y-96795714D01*
X138857142Y-96748095D01*
X138904761Y-96700476D01*
X138952380Y-96605238D01*
X138952380Y-96414761D01*
X138904761Y-96319523D01*
X138857142Y-96271904D01*
X138761904Y-96224285D01*
X138523809Y-96224285D01*
X138428571Y-96271904D01*
X138380952Y-96319523D01*
X138333333Y-96414761D01*
X138333333Y-96605238D01*
X138380952Y-96700476D01*
X138428571Y-96748095D01*
X138523809Y-96795714D01*
%TO.C,Y2*%
X130976190Y-80726190D02*
X131452380Y-80726190D01*
X130452380Y-81059523D02*
X130976190Y-80726190D01*
X130452380Y-80392857D01*
X130547619Y-80107142D02*
X130500000Y-80059523D01*
X130452380Y-79964285D01*
X130452380Y-79726190D01*
X130500000Y-79630952D01*
X130547619Y-79583333D01*
X130642857Y-79535714D01*
X130738095Y-79535714D01*
X130880952Y-79583333D01*
X131452380Y-80154761D01*
X131452380Y-79535714D01*
%TO.C,C2*%
X124182142Y-70666666D02*
X124229761Y-70714285D01*
X124277380Y-70857142D01*
X124277380Y-70952380D01*
X124229761Y-71095238D01*
X124134523Y-71190476D01*
X124039285Y-71238095D01*
X123848809Y-71285714D01*
X123705952Y-71285714D01*
X123515476Y-71238095D01*
X123420238Y-71190476D01*
X123325000Y-71095238D01*
X123277380Y-70952380D01*
X123277380Y-70857142D01*
X123325000Y-70714285D01*
X123372619Y-70666666D01*
X123372619Y-70285714D02*
X123325000Y-70238095D01*
X123277380Y-70142857D01*
X123277380Y-69904761D01*
X123325000Y-69809523D01*
X123372619Y-69761904D01*
X123467857Y-69714285D01*
X123563095Y-69714285D01*
X123705952Y-69761904D01*
X124277380Y-70333333D01*
X124277380Y-69714285D01*
%TO.C,R2*%
X115333333Y-92382380D02*
X115000000Y-91906190D01*
X114761904Y-92382380D02*
X114761904Y-91382380D01*
X115142857Y-91382380D01*
X115238095Y-91430000D01*
X115285714Y-91477619D01*
X115333333Y-91572857D01*
X115333333Y-91715714D01*
X115285714Y-91810952D01*
X115238095Y-91858571D01*
X115142857Y-91906190D01*
X114761904Y-91906190D01*
X115714285Y-91477619D02*
X115761904Y-91430000D01*
X115857142Y-91382380D01*
X116095238Y-91382380D01*
X116190476Y-91430000D01*
X116238095Y-91477619D01*
X116285714Y-91572857D01*
X116285714Y-91668095D01*
X116238095Y-91810952D01*
X115666666Y-92382380D01*
X116285714Y-92382380D01*
%TO.C,J4*%
X131666666Y-84082380D02*
X131666666Y-84796666D01*
X131619047Y-84939523D01*
X131523809Y-85034761D01*
X131380952Y-85082380D01*
X131285714Y-85082380D01*
X132571428Y-84415714D02*
X132571428Y-85082380D01*
X132333333Y-84034761D02*
X132095238Y-84749047D01*
X132714285Y-84749047D01*
%TO.C,J1*%
X137416666Y-64702380D02*
X137416666Y-65416666D01*
X137369047Y-65559523D01*
X137273809Y-65654761D01*
X137130952Y-65702380D01*
X137035714Y-65702380D01*
X138416666Y-65702380D02*
X137845238Y-65702380D01*
X138130952Y-65702380D02*
X138130952Y-64702380D01*
X138035714Y-64845238D01*
X137940476Y-64940476D01*
X137845238Y-64988095D01*
%TO.C,J8*%
X101666666Y-59122380D02*
X101666666Y-59836666D01*
X101619047Y-59979523D01*
X101523809Y-60074761D01*
X101380952Y-60122380D01*
X101285714Y-60122380D01*
X102285714Y-59550952D02*
X102190476Y-59503333D01*
X102142857Y-59455714D01*
X102095238Y-59360476D01*
X102095238Y-59312857D01*
X102142857Y-59217619D01*
X102190476Y-59170000D01*
X102285714Y-59122380D01*
X102476190Y-59122380D01*
X102571428Y-59170000D01*
X102619047Y-59217619D01*
X102666666Y-59312857D01*
X102666666Y-59360476D01*
X102619047Y-59455714D01*
X102571428Y-59503333D01*
X102476190Y-59550952D01*
X102285714Y-59550952D01*
X102190476Y-59598571D01*
X102142857Y-59646190D01*
X102095238Y-59741428D01*
X102095238Y-59931904D01*
X102142857Y-60027142D01*
X102190476Y-60074761D01*
X102285714Y-60122380D01*
X102476190Y-60122380D01*
X102571428Y-60074761D01*
X102619047Y-60027142D01*
X102666666Y-59931904D01*
X102666666Y-59741428D01*
X102619047Y-59646190D01*
X102571428Y-59598571D01*
X102476190Y-59550952D01*
%TO.C,R8*%
X126833333Y-87452380D02*
X126500000Y-86976190D01*
X126261904Y-87452380D02*
X126261904Y-86452380D01*
X126642857Y-86452380D01*
X126738095Y-86500000D01*
X126785714Y-86547619D01*
X126833333Y-86642857D01*
X126833333Y-86785714D01*
X126785714Y-86880952D01*
X126738095Y-86928571D01*
X126642857Y-86976190D01*
X126261904Y-86976190D01*
X127404761Y-86880952D02*
X127309523Y-86833333D01*
X127261904Y-86785714D01*
X127214285Y-86690476D01*
X127214285Y-86642857D01*
X127261904Y-86547619D01*
X127309523Y-86500000D01*
X127404761Y-86452380D01*
X127595238Y-86452380D01*
X127690476Y-86500000D01*
X127738095Y-86547619D01*
X127785714Y-86642857D01*
X127785714Y-86690476D01*
X127738095Y-86785714D01*
X127690476Y-86833333D01*
X127595238Y-86880952D01*
X127404761Y-86880952D01*
X127309523Y-86928571D01*
X127261904Y-86976190D01*
X127214285Y-87071428D01*
X127214285Y-87261904D01*
X127261904Y-87357142D01*
X127309523Y-87404761D01*
X127404761Y-87452380D01*
X127595238Y-87452380D01*
X127690476Y-87404761D01*
X127738095Y-87357142D01*
X127785714Y-87261904D01*
X127785714Y-87071428D01*
X127738095Y-86976190D01*
X127690476Y-86928571D01*
X127595238Y-86880952D01*
%TO.C,J2*%
X136282380Y-52333333D02*
X136996666Y-52333333D01*
X137139523Y-52380952D01*
X137234761Y-52476190D01*
X137282380Y-52619047D01*
X137282380Y-52714285D01*
X136377619Y-51904761D02*
X136330000Y-51857142D01*
X136282380Y-51761904D01*
X136282380Y-51523809D01*
X136330000Y-51428571D01*
X136377619Y-51380952D01*
X136472857Y-51333333D01*
X136568095Y-51333333D01*
X136710952Y-51380952D01*
X137282380Y-51952380D01*
X137282380Y-51333333D01*
%TO.C,J7*%
X125057380Y-97833333D02*
X125771666Y-97833333D01*
X125914523Y-97880952D01*
X126009761Y-97976190D01*
X126057380Y-98119047D01*
X126057380Y-98214285D01*
X125057380Y-97452380D02*
X125057380Y-96785714D01*
X126057380Y-97214285D01*
D11*
%TO.C,J9*%
X140420000Y-85770000D02*
X143080000Y-85770000D01*
X140420000Y-83170000D02*
X141750000Y-83170000D01*
X143080000Y-85770000D02*
X143080000Y-95990000D01*
X140420000Y-84500000D02*
X140420000Y-83170000D01*
X140420000Y-95990000D02*
X143080000Y-95990000D01*
X140420000Y-85770000D02*
X140420000Y-95990000D01*
%TO.C,R5*%
X137310000Y-81853733D02*
X137310000Y-82146267D01*
X136290000Y-81853733D02*
X136290000Y-82146267D01*
%TO.C,J6*%
X133230000Y-55920000D02*
X110310000Y-55920000D01*
X133230000Y-58580000D02*
X110310000Y-58580000D01*
X110310000Y-55920000D02*
X110310000Y-58580000D01*
X135830000Y-55920000D02*
X135830000Y-57250000D01*
X134500000Y-55920000D02*
X135830000Y-55920000D01*
X133230000Y-55920000D02*
X133230000Y-58580000D01*
%TO.C,C1*%
X125760000Y-75096267D02*
X125760000Y-74803733D01*
X124740000Y-75096267D02*
X124740000Y-74803733D01*
%TO.C,R3*%
X135210000Y-81853733D02*
X135210000Y-82146267D01*
X134190000Y-81853733D02*
X134190000Y-82146267D01*
%TO.C,R7*%
X109260000Y-62146267D02*
X109260000Y-61853733D01*
X108240000Y-62146267D02*
X108240000Y-61853733D01*
%TO.C,J5*%
X134420000Y-88230000D02*
X134420000Y-93370000D01*
X134420000Y-88230000D02*
X137080000Y-88230000D01*
X134420000Y-86960000D02*
X134420000Y-85630000D01*
X137080000Y-88230000D02*
X137080000Y-93370000D01*
X134420000Y-93370000D02*
X137080000Y-93370000D01*
X134420000Y-85630000D02*
X135750000Y-85630000D01*
%TO.C,J13*%
X107593471Y-56960000D02*
X107736529Y-56960000D01*
X102525000Y-56507530D02*
X102525000Y-57162470D01*
X102525000Y-57777530D02*
X102525000Y-58600000D01*
X102525000Y-55070000D02*
X102525000Y-55892470D01*
X108995000Y-58600000D02*
X102525000Y-58600000D01*
X108300000Y-55070000D02*
X109060000Y-55070000D01*
X107540000Y-55070000D02*
X107540000Y-55636529D01*
X107540000Y-56763471D02*
X107540000Y-56906529D01*
X108995000Y-56960000D02*
X108995000Y-57162470D01*
X109060000Y-55070000D02*
X109060000Y-56200000D01*
X107540000Y-55070000D02*
X102525000Y-55070000D01*
X108863471Y-56960000D02*
X108995000Y-56960000D01*
X108995000Y-57777530D02*
X108995000Y-58600000D01*
%TO.C,C6*%
X134490000Y-70396267D02*
X134490000Y-70103733D01*
X135510000Y-70396267D02*
X135510000Y-70103733D01*
%TO.C,C5*%
X136840000Y-70211252D02*
X136840000Y-68788748D01*
X138660000Y-70211252D02*
X138660000Y-68788748D01*
%TO.C,J14*%
X110505000Y-96170000D02*
X107905000Y-96170000D01*
X113105000Y-96170000D02*
X113105000Y-97500000D01*
X107905000Y-96170000D02*
X107905000Y-98830000D01*
X110505000Y-96170000D02*
X110505000Y-98830000D01*
X110505000Y-98830000D02*
X107905000Y-98830000D01*
X111775000Y-96170000D02*
X113105000Y-96170000D01*
%TO.C,R4*%
X134190000Y-97156267D02*
X134190000Y-96863733D01*
X135210000Y-97156267D02*
X135210000Y-96863733D01*
%TO.C,C9*%
X106240000Y-61853733D02*
X106240000Y-62146267D01*
X107260000Y-61853733D02*
X107260000Y-62146267D01*
%TO.C,U3*%
X119440000Y-90000000D02*
X119440000Y-91950000D01*
X119440000Y-90000000D02*
X119440000Y-88050000D01*
X124560000Y-90000000D02*
X124560000Y-86550000D01*
X124560000Y-90000000D02*
X124560000Y-91950000D01*
%TO.C,C3*%
X127510000Y-81146267D02*
X127510000Y-80853733D01*
X126490000Y-81146267D02*
X126490000Y-80853733D01*
%TO.C,R9*%
X127146267Y-89990000D02*
X126853733Y-89990000D01*
X127146267Y-91010000D02*
X126853733Y-91010000D01*
%TO.C,J11*%
X140420000Y-69995000D02*
X143080000Y-69995000D01*
X140420000Y-69995000D02*
X140420000Y-72595000D01*
X140420000Y-72595000D02*
X143080000Y-72595000D01*
X143080000Y-69995000D02*
X143080000Y-72595000D01*
X140420000Y-67395000D02*
X141750000Y-67395000D01*
X140420000Y-68725000D02*
X140420000Y-67395000D01*
%TO.C,U4*%
X113060000Y-90000000D02*
X113060000Y-91950000D01*
X107940000Y-90000000D02*
X107940000Y-91950000D01*
X113060000Y-90000000D02*
X113060000Y-86550000D01*
X107940000Y-90000000D02*
X107940000Y-88050000D01*
%TO.C,Y1*%
X126350000Y-71000000D02*
X126350000Y-75000000D01*
X129650000Y-71000000D02*
X126350000Y-71000000D01*
%TO.C,J12*%
X148330000Y-69995000D02*
X148330000Y-72595000D01*
X145670000Y-69995000D02*
X145670000Y-72595000D01*
X145670000Y-67395000D02*
X147000000Y-67395000D01*
X145670000Y-72595000D02*
X148330000Y-72595000D01*
X145670000Y-68725000D02*
X145670000Y-67395000D01*
X145670000Y-69995000D02*
X148330000Y-69995000D01*
%TO.C,J3*%
X110230000Y-50670000D02*
X102550000Y-50670000D01*
X110230000Y-53330000D02*
X102550000Y-53330000D01*
X111500000Y-50670000D02*
X112830000Y-50670000D01*
X110230000Y-50670000D02*
X110230000Y-53330000D01*
X102550000Y-50670000D02*
X102550000Y-53330000D01*
X112830000Y-50670000D02*
X112830000Y-52000000D01*
%TO.C,R1*%
X115646267Y-87990000D02*
X115353733Y-87990000D01*
X115646267Y-89010000D02*
X115353733Y-89010000D01*
%TO.C,U2*%
X148600000Y-80910000D02*
X142590000Y-80910000D01*
X146350000Y-74090000D02*
X142590000Y-74090000D01*
X142590000Y-74090000D02*
X142590000Y-75350000D01*
X142590000Y-80910000D02*
X142590000Y-79650000D01*
%TO.C,C8*%
X134490000Y-77396267D02*
X134490000Y-77103733D01*
X135510000Y-77396267D02*
X135510000Y-77103733D01*
%TO.C,C7*%
X138610000Y-77211252D02*
X138610000Y-75788748D01*
X136790000Y-77211252D02*
X136790000Y-75788748D01*
%TO.C,U1*%
X112214000Y-78110000D02*
X112214000Y-77660000D01*
X112214000Y-70890000D02*
X112214000Y-71340000D01*
X118984000Y-70890000D02*
X119434000Y-70890000D01*
X112664000Y-70890000D02*
X112214000Y-70890000D01*
X119434000Y-70890000D02*
X119434000Y-71340000D01*
X112664000Y-78110000D02*
X112214000Y-78110000D01*
X119434000Y-78110000D02*
X119434000Y-77660000D01*
X118984000Y-78110000D02*
X119434000Y-78110000D01*
X119434000Y-77660000D02*
X120724000Y-77660000D01*
%TO.C,J10*%
X148650000Y-85770000D02*
X148650000Y-95990000D01*
X145990000Y-83170000D02*
X147320000Y-83170000D01*
X145990000Y-85770000D02*
X148650000Y-85770000D01*
X145990000Y-84500000D02*
X145990000Y-83170000D01*
X145990000Y-95990000D02*
X148650000Y-95990000D01*
X145990000Y-85770000D02*
X145990000Y-95990000D01*
%TO.C,C4*%
X127510000Y-77103733D02*
X127510000Y-77396267D01*
X126490000Y-77103733D02*
X126490000Y-77396267D01*
%TO.C,R6*%
X136390000Y-97156267D02*
X136390000Y-96863733D01*
X137410000Y-97156267D02*
X137410000Y-96863733D01*
%TO.C,Y2*%
X128125000Y-79675000D02*
X128125000Y-78325000D01*
X129875000Y-79675000D02*
X129875000Y-78325000D01*
%TO.C,C2*%
X125760000Y-70878733D02*
X125760000Y-71171267D01*
X124740000Y-70878733D02*
X124740000Y-71171267D01*
%TO.C,R2*%
X115646267Y-89990000D02*
X115353733Y-89990000D01*
X115646267Y-91010000D02*
X115353733Y-91010000D01*
%TO.C,J4*%
X130670000Y-86960000D02*
X130670000Y-85630000D01*
X130670000Y-85630000D02*
X132000000Y-85630000D01*
X130670000Y-88230000D02*
X130670000Y-93370000D01*
X133330000Y-88230000D02*
X133330000Y-93370000D01*
X130670000Y-93370000D02*
X133330000Y-93370000D01*
X130670000Y-88230000D02*
X133330000Y-88230000D01*
%TO.C,J1*%
X139400000Y-65050000D02*
X139400000Y-63750000D01*
X139400000Y-50550000D02*
X148600000Y-50550000D01*
X139400000Y-59150000D02*
X139400000Y-50550000D01*
X141400000Y-65050000D02*
X139400000Y-65050000D01*
X148600000Y-65050000D02*
X146600000Y-65050000D01*
X148900000Y-65350000D02*
X148900000Y-64050000D01*
X147200000Y-65350000D02*
X148900000Y-65350000D01*
X148600000Y-50550000D02*
X148600000Y-65050000D01*
%TO.C,J8*%
X100670000Y-63270000D02*
X103330000Y-63270000D01*
X103330000Y-63270000D02*
X103330000Y-96350000D01*
X100670000Y-62000000D02*
X100670000Y-60670000D01*
X100670000Y-60670000D02*
X102000000Y-60670000D01*
X100670000Y-96350000D02*
X103330000Y-96350000D01*
X100670000Y-63270000D02*
X100670000Y-96350000D01*
%TO.C,R8*%
X127146267Y-87990000D02*
X126853733Y-87990000D01*
X127146267Y-89010000D02*
X126853733Y-89010000D01*
%TO.C,J2*%
X133230000Y-50670000D02*
X115390000Y-50670000D01*
X135830000Y-50670000D02*
X135830000Y-52000000D01*
X133230000Y-53330000D02*
X115390000Y-53330000D01*
X115390000Y-50670000D02*
X115390000Y-53330000D01*
X133230000Y-50670000D02*
X133230000Y-53330000D01*
X134500000Y-50670000D02*
X135830000Y-50670000D01*
%TO.C,J7*%
X123275000Y-96170000D02*
X124605000Y-96170000D01*
X122005000Y-98830000D02*
X119405000Y-98830000D01*
X124605000Y-96170000D02*
X124605000Y-97500000D01*
X122005000Y-96170000D02*
X122005000Y-98830000D01*
X122005000Y-96170000D02*
X119405000Y-96170000D01*
X119405000Y-96170000D02*
X119405000Y-98830000D01*
%TD*%
%LPC*%
D12*
%TO.C,J9*%
X141750000Y-84500000D03*
D13*
X141750000Y-87040000D03*
X141750000Y-89580000D03*
X141750000Y-92120000D03*
X141750000Y-94660000D03*
%TD*%
D14*
%TO.C,R5*%
X136800000Y-81137500D03*
X136800000Y-82862500D03*
%TD*%
D12*
%TO.C,J6*%
X134500000Y-57250000D03*
D13*
X131960000Y-57250000D03*
X129420000Y-57250000D03*
X126880000Y-57250000D03*
X124340000Y-57250000D03*
X121800000Y-57250000D03*
X119260000Y-57250000D03*
X116720000Y-57250000D03*
X114180000Y-57250000D03*
X111640000Y-57250000D03*
%TD*%
D15*
%TO.C,C1*%
X125250000Y-75812500D03*
X125250000Y-74087500D03*
%TD*%
D14*
%TO.C,R3*%
X134700000Y-81137500D03*
X134700000Y-82862500D03*
%TD*%
D15*
%TO.C,R7*%
X108750000Y-62862500D03*
X108750000Y-61137500D03*
%TD*%
D12*
%TO.C,J5*%
X135750000Y-86960000D03*
D13*
X135750000Y-89500000D03*
X135750000Y-92040000D03*
%TD*%
D16*
%TO.C,J13*%
X108300000Y-56200000D03*
D17*
X108300000Y-57470000D03*
X107030000Y-56200000D03*
X107030000Y-57470000D03*
X105760000Y-56200000D03*
X105760000Y-57470000D03*
X104490000Y-56200000D03*
X104490000Y-57470000D03*
X103220000Y-56200000D03*
X103220000Y-57470000D03*
%TD*%
D15*
%TO.C,C6*%
X135000000Y-71112500D03*
X135000000Y-69387500D03*
%TD*%
D18*
%TO.C,C5*%
X137750000Y-71062500D03*
X137750000Y-67937500D03*
%TD*%
D12*
%TO.C,J14*%
X111775000Y-97500000D03*
D13*
X109235000Y-97500000D03*
%TD*%
D15*
%TO.C,R4*%
X134700000Y-97872500D03*
X134700000Y-96147500D03*
%TD*%
D14*
%TO.C,C9*%
X106750000Y-61137500D03*
X106750000Y-62862500D03*
%TD*%
D19*
%TO.C,U3*%
X123905000Y-87525000D03*
X122635000Y-87525000D03*
X121365000Y-87525000D03*
X120095000Y-87525000D03*
X120095000Y-92475000D03*
X121365000Y-92475000D03*
X122635000Y-92475000D03*
X123905000Y-92475000D03*
%TD*%
D15*
%TO.C,C3*%
X127000000Y-81862500D03*
X127000000Y-80137500D03*
%TD*%
D20*
%TO.C,R9*%
X127862500Y-90500000D03*
X126137500Y-90500000D03*
%TD*%
D12*
%TO.C,J11*%
X141750000Y-68725000D03*
D13*
X141750000Y-71265000D03*
%TD*%
D19*
%TO.C,U4*%
X112405000Y-87525000D03*
X111135000Y-87525000D03*
X109865000Y-87525000D03*
X108595000Y-87525000D03*
X108595000Y-92475000D03*
X109865000Y-92475000D03*
X111135000Y-92475000D03*
X112405000Y-92475000D03*
%TD*%
D21*
%TO.C,Y1*%
X127150000Y-71900000D03*
X127150000Y-74100000D03*
X128850000Y-74100000D03*
X128850000Y-71900000D03*
%TD*%
D12*
%TO.C,J12*%
X147000000Y-68725000D03*
D13*
X147000000Y-71265000D03*
%TD*%
D12*
%TO.C,J3*%
X111500000Y-52000000D03*
D13*
X108960000Y-52000000D03*
X106420000Y-52000000D03*
X103880000Y-52000000D03*
%TD*%
D20*
%TO.C,R1*%
X116362500Y-88500000D03*
X114637500Y-88500000D03*
%TD*%
D22*
%TO.C,U2*%
X147650000Y-79800000D03*
D23*
X141350000Y-77500000D03*
D22*
X147650000Y-77500000D03*
X147650000Y-75200000D03*
%TD*%
D15*
%TO.C,C8*%
X135000000Y-78112500D03*
X135000000Y-76387500D03*
%TD*%
D18*
%TO.C,C7*%
X137700000Y-78062500D03*
X137700000Y-74937500D03*
%TD*%
D24*
%TO.C,U1*%
X119986500Y-77250000D03*
X119986500Y-76750000D03*
X119986500Y-76250000D03*
X119986500Y-75750000D03*
X119986500Y-75250000D03*
X119986500Y-74750000D03*
X119986500Y-74250000D03*
X119986500Y-73750000D03*
X119986500Y-73250000D03*
X119986500Y-72750000D03*
X119986500Y-72250000D03*
X119986500Y-71750000D03*
D25*
X118574000Y-70337500D03*
X118074000Y-70337500D03*
X117574000Y-70337500D03*
X117074000Y-70337500D03*
X116574000Y-70337500D03*
X116074000Y-70337500D03*
X115574000Y-70337500D03*
X115074000Y-70337500D03*
X114574000Y-70337500D03*
X114074000Y-70337500D03*
X113574000Y-70337500D03*
X113074000Y-70337500D03*
D24*
X111661500Y-71750000D03*
X111661500Y-72250000D03*
X111661500Y-72750000D03*
X111661500Y-73250000D03*
X111661500Y-73750000D03*
X111661500Y-74250000D03*
X111661500Y-74750000D03*
X111661500Y-75250000D03*
X111661500Y-75750000D03*
X111661500Y-76250000D03*
X111661500Y-76750000D03*
X111661500Y-77250000D03*
D25*
X113074000Y-78662500D03*
X113574000Y-78662500D03*
X114074000Y-78662500D03*
X114574000Y-78662500D03*
X115074000Y-78662500D03*
X115574000Y-78662500D03*
X116074000Y-78662500D03*
X116574000Y-78662500D03*
X117074000Y-78662500D03*
X117574000Y-78662500D03*
X118074000Y-78662500D03*
X118574000Y-78662500D03*
%TD*%
D12*
%TO.C,J10*%
X147320000Y-84500000D03*
D13*
X147320000Y-87040000D03*
X147320000Y-89580000D03*
X147320000Y-92120000D03*
X147320000Y-94660000D03*
%TD*%
D14*
%TO.C,C4*%
X127000000Y-76387500D03*
X127000000Y-78112500D03*
%TD*%
D15*
%TO.C,R6*%
X136900000Y-97872500D03*
X136900000Y-96147500D03*
%TD*%
D26*
%TO.C,Y2*%
X129000000Y-77750000D03*
X129000000Y-80250000D03*
%TD*%
D14*
%TO.C,C2*%
X125250000Y-70162500D03*
X125250000Y-71887500D03*
%TD*%
D20*
%TO.C,R2*%
X116362500Y-90500000D03*
X114637500Y-90500000D03*
%TD*%
D12*
%TO.C,J4*%
X132000000Y-86960000D03*
D13*
X132000000Y-89500000D03*
X132000000Y-92040000D03*
%TD*%
D27*
%TO.C,J1*%
X144000000Y-64350000D03*
D28*
X144000000Y-58050000D03*
D29*
X139200000Y-61450000D03*
%TD*%
D12*
%TO.C,J8*%
X102000000Y-62000000D03*
D13*
X102000000Y-64540000D03*
X102000000Y-67080000D03*
X102000000Y-69620000D03*
X102000000Y-72160000D03*
X102000000Y-74700000D03*
X102000000Y-77240000D03*
X102000000Y-79780000D03*
X102000000Y-82320000D03*
X102000000Y-84860000D03*
X102000000Y-87400000D03*
X102000000Y-89940000D03*
X102000000Y-92480000D03*
X102000000Y-95020000D03*
%TD*%
D20*
%TO.C,R8*%
X127862500Y-88500000D03*
X126137500Y-88500000D03*
%TD*%
D12*
%TO.C,J2*%
X134500000Y-52000000D03*
D13*
X131960000Y-52000000D03*
X129420000Y-52000000D03*
X126880000Y-52000000D03*
X124340000Y-52000000D03*
X121800000Y-52000000D03*
X119260000Y-52000000D03*
X116720000Y-52000000D03*
%TD*%
D12*
%TO.C,J7*%
X123275000Y-97500000D03*
D13*
X120735000Y-97500000D03*
%TD*%
M02*
