%TF.GenerationSoftware,KiCad,Pcbnew,(5.99.0-12896-g1860893d63)*%
%TF.CreationDate,2021-11-27T00:19:13+08:00*%
%TF.ProjectId,GD32_SPINE,47443332-5f53-4504-994e-452e6b696361,rev?*%
%TF.SameCoordinates,Original*%
%TF.FileFunction,Paste,Top*%
%TF.FilePolarity,Positive*%
%FSLAX46Y46*%
G04 Gerber Fmt 4.6, Leading zero omitted, Abs format (unit mm)*
G04 Created by KiCad (PCBNEW (5.99.0-12896-g1860893d63)) date 2021-11-27 00:19:13*
%MOMM*%
%LPD*%
G01*
G04 APERTURE LIST*
G04 Aperture macros list*
%AMRoundRect*
0 Rectangle with rounded corners*
0 $1 Rounding radius*
0 $2 $3 $4 $5 $6 $7 $8 $9 X,Y pos of 4 corners*
0 Add a 4 corners polygon primitive as box body*
4,1,4,$2,$3,$4,$5,$6,$7,$8,$9,$2,$3,0*
0 Add four circle primitives for the rounded corners*
1,1,$1+$1,$2,$3*
1,1,$1+$1,$4,$5*
1,1,$1+$1,$6,$7*
1,1,$1+$1,$8,$9*
0 Add four rect primitives between the rounded corners*
20,1,$1+$1,$2,$3,$4,$5,0*
20,1,$1+$1,$4,$5,$6,$7,0*
20,1,$1+$1,$6,$7,$8,$9,0*
20,1,$1+$1,$8,$9,$2,$3,0*%
G04 Aperture macros list end*
%ADD10RoundRect,0.237500X-0.237500X0.300000X-0.237500X-0.300000X0.237500X-0.300000X0.237500X0.300000X0*%
%ADD11RoundRect,0.237500X0.237500X-0.300000X0.237500X0.300000X-0.237500X0.300000X-0.237500X-0.300000X0*%
%ADD12RoundRect,0.250000X0.650000X-0.412500X0.650000X0.412500X-0.650000X0.412500X-0.650000X-0.412500X0*%
%ADD13RoundRect,0.150000X-0.150000X0.825000X-0.150000X-0.825000X0.150000X-0.825000X0.150000X0.825000X0*%
%ADD14RoundRect,0.237500X0.300000X0.237500X-0.300000X0.237500X-0.300000X-0.237500X0.300000X-0.237500X0*%
%ADD15R,1.200000X1.400000*%
%ADD16R,2.000000X1.500000*%
%ADD17R,2.000000X3.800000*%
%ADD18RoundRect,0.075000X0.662500X0.075000X-0.662500X0.075000X-0.662500X-0.075000X0.662500X-0.075000X0*%
%ADD19RoundRect,0.075000X0.075000X0.662500X-0.075000X0.662500X-0.075000X-0.662500X0.075000X-0.662500X0*%
%ADD20R,1.800000X1.000000*%
G04 APERTURE END LIST*
D10*
%TO.C,R5*%
X136800000Y-81137500D03*
X136800000Y-82862500D03*
%TD*%
D11*
%TO.C,C1*%
X125250000Y-75812500D03*
X125250000Y-74087500D03*
%TD*%
D10*
%TO.C,R3*%
X134700000Y-81137500D03*
X134700000Y-82862500D03*
%TD*%
D11*
%TO.C,R7*%
X108750000Y-62862500D03*
X108750000Y-61137500D03*
%TD*%
%TO.C,C6*%
X135000000Y-71112500D03*
X135000000Y-69387500D03*
%TD*%
D12*
%TO.C,C5*%
X137750000Y-71062500D03*
X137750000Y-67937500D03*
%TD*%
D11*
%TO.C,R4*%
X134700000Y-97872500D03*
X134700000Y-96147500D03*
%TD*%
D10*
%TO.C,C9*%
X106750000Y-61137500D03*
X106750000Y-62862500D03*
%TD*%
D13*
%TO.C,U3*%
X123905000Y-87525000D03*
X122635000Y-87525000D03*
X121365000Y-87525000D03*
X120095000Y-87525000D03*
X120095000Y-92475000D03*
X121365000Y-92475000D03*
X122635000Y-92475000D03*
X123905000Y-92475000D03*
%TD*%
D11*
%TO.C,C3*%
X127000000Y-81862500D03*
X127000000Y-80137500D03*
%TD*%
D14*
%TO.C,R9*%
X127862500Y-90500000D03*
X126137500Y-90500000D03*
%TD*%
D13*
%TO.C,U4*%
X112405000Y-87525000D03*
X111135000Y-87525000D03*
X109865000Y-87525000D03*
X108595000Y-87525000D03*
X108595000Y-92475000D03*
X109865000Y-92475000D03*
X111135000Y-92475000D03*
X112405000Y-92475000D03*
%TD*%
D15*
%TO.C,Y1*%
X127150000Y-71900000D03*
X127150000Y-74100000D03*
X128850000Y-74100000D03*
X128850000Y-71900000D03*
%TD*%
D14*
%TO.C,R1*%
X116362500Y-88500000D03*
X114637500Y-88500000D03*
%TD*%
D16*
%TO.C,U2*%
X147650000Y-79800000D03*
D17*
X141350000Y-77500000D03*
D16*
X147650000Y-77500000D03*
X147650000Y-75200000D03*
%TD*%
D11*
%TO.C,C8*%
X135000000Y-78112500D03*
X135000000Y-76387500D03*
%TD*%
D12*
%TO.C,C7*%
X137700000Y-78062500D03*
X137700000Y-74937500D03*
%TD*%
D18*
%TO.C,U1*%
X119986500Y-77250000D03*
X119986500Y-76750000D03*
X119986500Y-76250000D03*
X119986500Y-75750000D03*
X119986500Y-75250000D03*
X119986500Y-74750000D03*
X119986500Y-74250000D03*
X119986500Y-73750000D03*
X119986500Y-73250000D03*
X119986500Y-72750000D03*
X119986500Y-72250000D03*
X119986500Y-71750000D03*
D19*
X118574000Y-70337500D03*
X118074000Y-70337500D03*
X117574000Y-70337500D03*
X117074000Y-70337500D03*
X116574000Y-70337500D03*
X116074000Y-70337500D03*
X115574000Y-70337500D03*
X115074000Y-70337500D03*
X114574000Y-70337500D03*
X114074000Y-70337500D03*
X113574000Y-70337500D03*
X113074000Y-70337500D03*
D18*
X111661500Y-71750000D03*
X111661500Y-72250000D03*
X111661500Y-72750000D03*
X111661500Y-73250000D03*
X111661500Y-73750000D03*
X111661500Y-74250000D03*
X111661500Y-74750000D03*
X111661500Y-75250000D03*
X111661500Y-75750000D03*
X111661500Y-76250000D03*
X111661500Y-76750000D03*
X111661500Y-77250000D03*
D19*
X113074000Y-78662500D03*
X113574000Y-78662500D03*
X114074000Y-78662500D03*
X114574000Y-78662500D03*
X115074000Y-78662500D03*
X115574000Y-78662500D03*
X116074000Y-78662500D03*
X116574000Y-78662500D03*
X117074000Y-78662500D03*
X117574000Y-78662500D03*
X118074000Y-78662500D03*
X118574000Y-78662500D03*
%TD*%
D10*
%TO.C,C4*%
X127000000Y-76387500D03*
X127000000Y-78112500D03*
%TD*%
D11*
%TO.C,R6*%
X136900000Y-97872500D03*
X136900000Y-96147500D03*
%TD*%
D20*
%TO.C,Y2*%
X129000000Y-77750000D03*
X129000000Y-80250000D03*
%TD*%
D10*
%TO.C,C2*%
X125250000Y-70162500D03*
X125250000Y-71887500D03*
%TD*%
D14*
%TO.C,R2*%
X116362500Y-90500000D03*
X114637500Y-90500000D03*
%TD*%
%TO.C,R8*%
X127862500Y-88500000D03*
X126137500Y-88500000D03*
%TD*%
M02*
