M48
; DRILL file {KiCad (5.99.0-12896-g1860893d63)} date 2021 November 27, Saturday 00:19:17
; FORMAT={-:-/ absolute / metric / decimal}
; #@! TF.CreationDate,2021-11-27T00:19:17+08:00
; #@! TF.GenerationSoftware,Kicad,Pcbnew,(5.99.0-12896-g1860893d63)
; #@! TF.FileFunction,Plated,1,4,PTH
FMAT,2
METRIC
; #@! TA.AperFunction,Plated,PTH,ViaDrill
T1C0.200
; #@! TA.AperFunction,Plated,PTH,ViaDrill
T2C0.300
; #@! TA.AperFunction,Plated,PTH,ComponentDrill
T3C0.650
; #@! TA.AperFunction,Plated,PTH,ComponentDrill
T4C1.000
%
G90
G05
T1
X102.0Y-59.0
X104.0Y-75.0
X105.0Y-94.5
X105.0Y-96.0
X105.0Y-97.5
X105.0Y-99.0
X105.75Y-83.0
X105.9Y-79.1
X106.0Y-69.0
X106.0Y-73.0
X106.3Y-78.6
X106.75Y-64.25
X106.75Y-82.0
X107.0Y-94.5
X107.0Y-96.0
X107.0Y-97.5
X107.0Y-99.0
X107.2Y-75.8
X107.75Y-81.0
X108.0Y-69.0
X108.25Y-95.25
X108.75Y-64.25
X108.75Y-94.25
X109.5Y-85.25
X109.6Y-73.5
X109.6Y-74.2
X109.75Y-90.5
X109.9Y-74.8
X110.0Y-63.25
X110.45Y-77.6
X110.7Y-79.2
X110.75Y-85.25
X111.0Y-90.5
X111.1Y-80.7
X111.25Y-59.3
X111.25Y-60.3
X111.8Y-68.05
X112.0Y-94.25
X112.75Y-95.25
X112.8Y-72.0
X112.9Y-75.4
X113.0Y-68.05
X113.0Y-82.15
X113.05Y-76.25
X113.2Y-72.6
X113.4Y-77.0
X113.6Y-73.1
X113.6Y-75.4
X114.0Y-80.3
X114.1Y-73.5
X114.25Y-59.3
X114.25Y-60.25
X114.25Y-86.5
X114.25Y-94.5
X114.25Y-96.0
X114.25Y-97.5
X114.25Y-99.0
X114.5Y-77.3
X114.5Y-80.6
X114.8Y-76.5
X115.0Y-81.0
X115.5Y-86.5
X115.58Y-76.5
X116.08Y-77.0
X116.25Y-94.5
X116.25Y-96.0
X116.25Y-97.5
X116.25Y-99.0
X116.6Y-80.4
X116.6Y-81.0
X116.65Y-71.75
X116.65Y-72.9
X116.7Y-76.2
X116.75Y-86.5
X116.9Y-74.7
X116.9Y-75.4
X117.4Y-76.6
X117.5Y-88.5
X118.0Y-72.7
X118.0Y-86.5
X118.1Y-71.7
X118.25Y-82.75
X118.25Y-94.5
X118.25Y-96.0
X118.25Y-97.5
X118.25Y-99.0
X118.4Y-72.3
X118.5Y-60.75
X118.5Y-62.25
X118.574Y-68.904
X118.9Y-81.85
X119.0Y-71.37
X119.7Y-80.7
X119.75Y-95.25
X120.0Y-82.75
X120.25Y-67.25
X120.25Y-94.25
X120.5Y-58.5
X120.5Y-60.0
X120.5Y-63.0
X121.0Y-80.25
X121.0Y-85.25
X121.25Y-90.5
X121.5Y-66.0
X121.5Y-72.9
X121.7Y-77.7
X121.75Y-61.75
X122.0Y-74.0
X122.25Y-85.25
X122.5Y-90.5
X122.75Y-64.75
X123.0Y-60.5
X123.5Y-94.25
X124.0Y-63.5
X124.0Y-68.0
X124.25Y-59.25
X124.25Y-83.25
X124.25Y-95.25
X124.75Y-80.5
X125.0Y-73.0
X125.5Y-94.5
X125.5Y-96.0
X125.5Y-97.5
X125.5Y-99.0
X126.0Y-65.0
X126.75Y-54.0
X127.0Y-85.75
X127.5Y-83.0
X127.5Y-94.5
X127.5Y-96.0
X127.5Y-97.5
X127.5Y-99.0
X127.75Y-62.5
X128.0Y-68.0
X129.0Y-88.5
X129.25Y-59.0
X129.5Y-54.0
X130.0Y-65.0
X130.0Y-85.5
X131.25Y-62.25
X131.75Y-59.0
X132.0Y-54.0
X132.0Y-68.0
X134.0Y-65.0
X134.75Y-54.0
X135.25Y-60.0
X135.25Y-62.25
X135.75Y-84.5
X135.75Y-94.5
X138.25Y-80.75
X138.25Y-97.5
T2
X141.0Y-76.0
X141.0Y-77.0
X141.0Y-78.0
X141.0Y-79.0
X141.5Y-76.5
X141.5Y-77.5
X141.5Y-78.5
X142.0Y-76.0
X142.0Y-77.0
X142.0Y-78.0
X142.0Y-79.0
X146.9Y-77.25
X147.0Y-79.5
X147.1Y-77.8
X147.2Y-80.1
X147.5Y-77.25
X147.6Y-79.5
X147.7Y-77.8
X147.8Y-80.1
X148.1Y-77.25
X148.2Y-79.5
X148.3Y-77.8
X148.4Y-80.1
T3
X103.22Y-56.2
X103.22Y-57.47
X104.49Y-56.2
X104.49Y-57.47
X105.76Y-56.2
X105.76Y-57.47
X107.03Y-56.2
X107.03Y-57.47
X108.3Y-56.2
X108.3Y-57.47
T4
X102.0Y-62.0
X102.0Y-64.54
X102.0Y-67.08
X102.0Y-69.62
X102.0Y-72.16
X102.0Y-74.7
X102.0Y-77.24
X102.0Y-79.78
X102.0Y-82.32
X102.0Y-84.86
X102.0Y-87.4
X102.0Y-89.94
X102.0Y-92.48
X102.0Y-95.02
X103.88Y-52.0
X106.42Y-52.0
X108.96Y-52.0
X109.235Y-97.5
X111.5Y-52.0
X111.64Y-57.25
X111.775Y-97.5
X114.18Y-57.25
X116.72Y-52.0
X116.72Y-57.25
X119.26Y-52.0
X119.26Y-57.25
X120.735Y-97.5
X121.8Y-52.0
X121.8Y-57.25
X123.275Y-97.5
X124.34Y-52.0
X124.34Y-57.25
X126.88Y-52.0
X126.88Y-57.25
X129.42Y-52.0
X129.42Y-57.25
X131.96Y-52.0
X131.96Y-57.25
X132.0Y-86.96
X132.0Y-89.5
X132.0Y-92.04
X134.5Y-52.0
X134.5Y-57.25
X135.75Y-86.96
X135.75Y-89.5
X135.75Y-92.04
X141.75Y-68.725
X141.75Y-71.265
X141.75Y-84.5
X141.75Y-87.04
X141.75Y-89.58
X141.75Y-92.12
X141.75Y-94.66
X147.0Y-68.725
X147.0Y-71.265
X147.32Y-84.5
X147.32Y-87.04
X147.32Y-89.58
X147.32Y-92.12
X147.32Y-94.66
T4
X139.2Y-62.55G85X139.2Y-60.35
G05
X145.1Y-58.05G85X142.9Y-58.05
G05
X145.3Y-64.35G85X142.7Y-64.35
G05
T0
M30
