%TF.GenerationSoftware,KiCad,Pcbnew,(5.99.0-12896-g1860893d63)*%
%TF.CreationDate,2021-11-27T00:19:14+08:00*%
%TF.ProjectId,GD32_SPINE,47443332-5f53-4504-994e-452e6b696361,rev?*%
%TF.SameCoordinates,Original*%
%TF.FileFunction,Soldermask,Top*%
%TF.FilePolarity,Negative*%
%FSLAX46Y46*%
G04 Gerber Fmt 4.6, Leading zero omitted, Abs format (unit mm)*
G04 Created by KiCad (PCBNEW (5.99.0-12896-g1860893d63)) date 2021-11-27 00:19:14*
%MOMM*%
%LPD*%
G01*
G04 APERTURE LIST*
G04 Aperture macros list*
%AMRoundRect*
0 Rectangle with rounded corners*
0 $1 Rounding radius*
0 $2 $3 $4 $5 $6 $7 $8 $9 X,Y pos of 4 corners*
0 Add a 4 corners polygon primitive as box body*
4,1,4,$2,$3,$4,$5,$6,$7,$8,$9,$2,$3,0*
0 Add four circle primitives for the rounded corners*
1,1,$1+$1,$2,$3*
1,1,$1+$1,$4,$5*
1,1,$1+$1,$6,$7*
1,1,$1+$1,$8,$9*
0 Add four rect primitives between the rounded corners*
20,1,$1+$1,$2,$3,$4,$5,0*
20,1,$1+$1,$4,$5,$6,$7,0*
20,1,$1+$1,$6,$7,$8,$9,0*
20,1,$1+$1,$8,$9,$2,$3,0*%
G04 Aperture macros list end*
%ADD10R,1.700000X1.700000*%
%ADD11O,1.700000X1.700000*%
%ADD12RoundRect,0.237500X-0.237500X0.300000X-0.237500X-0.300000X0.237500X-0.300000X0.237500X0.300000X0*%
%ADD13RoundRect,0.237500X0.237500X-0.300000X0.237500X0.300000X-0.237500X0.300000X-0.237500X-0.300000X0*%
%ADD14R,1.000000X1.000000*%
%ADD15O,1.000000X1.000000*%
%ADD16RoundRect,0.250000X0.650000X-0.412500X0.650000X0.412500X-0.650000X0.412500X-0.650000X-0.412500X0*%
%ADD17RoundRect,0.150000X-0.150000X0.825000X-0.150000X-0.825000X0.150000X-0.825000X0.150000X0.825000X0*%
%ADD18RoundRect,0.237500X0.300000X0.237500X-0.300000X0.237500X-0.300000X-0.237500X0.300000X-0.237500X0*%
%ADD19R,1.200000X1.400000*%
%ADD20R,2.000000X1.500000*%
%ADD21R,2.000000X3.800000*%
%ADD22RoundRect,0.075000X0.662500X0.075000X-0.662500X0.075000X-0.662500X-0.075000X0.662500X-0.075000X0*%
%ADD23RoundRect,0.075000X0.075000X0.662500X-0.075000X0.662500X-0.075000X-0.662500X0.075000X-0.662500X0*%
%ADD24R,1.800000X1.000000*%
%ADD25R,4.600000X2.000000*%
%ADD26O,4.200000X2.000000*%
%ADD27O,2.000000X4.200000*%
G04 APERTURE END LIST*
D10*
%TO.C,J9*%
X141750000Y-84500000D03*
D11*
X141750000Y-87040000D03*
X141750000Y-89580000D03*
X141750000Y-92120000D03*
X141750000Y-94660000D03*
%TD*%
D12*
%TO.C,R5*%
X136800000Y-81137500D03*
X136800000Y-82862500D03*
%TD*%
D10*
%TO.C,J6*%
X134500000Y-57250000D03*
D11*
X131960000Y-57250000D03*
X129420000Y-57250000D03*
X126880000Y-57250000D03*
X124340000Y-57250000D03*
X121800000Y-57250000D03*
X119260000Y-57250000D03*
X116720000Y-57250000D03*
X114180000Y-57250000D03*
X111640000Y-57250000D03*
%TD*%
D13*
%TO.C,C1*%
X125250000Y-75812500D03*
X125250000Y-74087500D03*
%TD*%
D12*
%TO.C,R3*%
X134700000Y-81137500D03*
X134700000Y-82862500D03*
%TD*%
D13*
%TO.C,R7*%
X108750000Y-62862500D03*
X108750000Y-61137500D03*
%TD*%
D10*
%TO.C,J5*%
X135750000Y-86960000D03*
D11*
X135750000Y-89500000D03*
X135750000Y-92040000D03*
%TD*%
D14*
%TO.C,J13*%
X108300000Y-56200000D03*
D15*
X108300000Y-57470000D03*
X107030000Y-56200000D03*
X107030000Y-57470000D03*
X105760000Y-56200000D03*
X105760000Y-57470000D03*
X104490000Y-56200000D03*
X104490000Y-57470000D03*
X103220000Y-56200000D03*
X103220000Y-57470000D03*
%TD*%
D13*
%TO.C,C6*%
X135000000Y-71112500D03*
X135000000Y-69387500D03*
%TD*%
D16*
%TO.C,C5*%
X137750000Y-71062500D03*
X137750000Y-67937500D03*
%TD*%
D10*
%TO.C,J14*%
X111775000Y-97500000D03*
D11*
X109235000Y-97500000D03*
%TD*%
D13*
%TO.C,R4*%
X134700000Y-97872500D03*
X134700000Y-96147500D03*
%TD*%
D12*
%TO.C,C9*%
X106750000Y-61137500D03*
X106750000Y-62862500D03*
%TD*%
D17*
%TO.C,U3*%
X123905000Y-87525000D03*
X122635000Y-87525000D03*
X121365000Y-87525000D03*
X120095000Y-87525000D03*
X120095000Y-92475000D03*
X121365000Y-92475000D03*
X122635000Y-92475000D03*
X123905000Y-92475000D03*
%TD*%
D13*
%TO.C,C3*%
X127000000Y-81862500D03*
X127000000Y-80137500D03*
%TD*%
D18*
%TO.C,R9*%
X127862500Y-90500000D03*
X126137500Y-90500000D03*
%TD*%
D10*
%TO.C,J11*%
X141750000Y-68725000D03*
D11*
X141750000Y-71265000D03*
%TD*%
D17*
%TO.C,U4*%
X112405000Y-87525000D03*
X111135000Y-87525000D03*
X109865000Y-87525000D03*
X108595000Y-87525000D03*
X108595000Y-92475000D03*
X109865000Y-92475000D03*
X111135000Y-92475000D03*
X112405000Y-92475000D03*
%TD*%
D19*
%TO.C,Y1*%
X127150000Y-71900000D03*
X127150000Y-74100000D03*
X128850000Y-74100000D03*
X128850000Y-71900000D03*
%TD*%
D10*
%TO.C,J12*%
X147000000Y-68725000D03*
D11*
X147000000Y-71265000D03*
%TD*%
D10*
%TO.C,J3*%
X111500000Y-52000000D03*
D11*
X108960000Y-52000000D03*
X106420000Y-52000000D03*
X103880000Y-52000000D03*
%TD*%
D18*
%TO.C,R1*%
X116362500Y-88500000D03*
X114637500Y-88500000D03*
%TD*%
D20*
%TO.C,U2*%
X147650000Y-79800000D03*
D21*
X141350000Y-77500000D03*
D20*
X147650000Y-77500000D03*
X147650000Y-75200000D03*
%TD*%
D13*
%TO.C,C8*%
X135000000Y-78112500D03*
X135000000Y-76387500D03*
%TD*%
D16*
%TO.C,C7*%
X137700000Y-78062500D03*
X137700000Y-74937500D03*
%TD*%
D22*
%TO.C,U1*%
X119986500Y-77250000D03*
X119986500Y-76750000D03*
X119986500Y-76250000D03*
X119986500Y-75750000D03*
X119986500Y-75250000D03*
X119986500Y-74750000D03*
X119986500Y-74250000D03*
X119986500Y-73750000D03*
X119986500Y-73250000D03*
X119986500Y-72750000D03*
X119986500Y-72250000D03*
X119986500Y-71750000D03*
D23*
X118574000Y-70337500D03*
X118074000Y-70337500D03*
X117574000Y-70337500D03*
X117074000Y-70337500D03*
X116574000Y-70337500D03*
X116074000Y-70337500D03*
X115574000Y-70337500D03*
X115074000Y-70337500D03*
X114574000Y-70337500D03*
X114074000Y-70337500D03*
X113574000Y-70337500D03*
X113074000Y-70337500D03*
D22*
X111661500Y-71750000D03*
X111661500Y-72250000D03*
X111661500Y-72750000D03*
X111661500Y-73250000D03*
X111661500Y-73750000D03*
X111661500Y-74250000D03*
X111661500Y-74750000D03*
X111661500Y-75250000D03*
X111661500Y-75750000D03*
X111661500Y-76250000D03*
X111661500Y-76750000D03*
X111661500Y-77250000D03*
D23*
X113074000Y-78662500D03*
X113574000Y-78662500D03*
X114074000Y-78662500D03*
X114574000Y-78662500D03*
X115074000Y-78662500D03*
X115574000Y-78662500D03*
X116074000Y-78662500D03*
X116574000Y-78662500D03*
X117074000Y-78662500D03*
X117574000Y-78662500D03*
X118074000Y-78662500D03*
X118574000Y-78662500D03*
%TD*%
D10*
%TO.C,J10*%
X147320000Y-84500000D03*
D11*
X147320000Y-87040000D03*
X147320000Y-89580000D03*
X147320000Y-92120000D03*
X147320000Y-94660000D03*
%TD*%
D12*
%TO.C,C4*%
X127000000Y-76387500D03*
X127000000Y-78112500D03*
%TD*%
D13*
%TO.C,R6*%
X136900000Y-97872500D03*
X136900000Y-96147500D03*
%TD*%
D24*
%TO.C,Y2*%
X129000000Y-77750000D03*
X129000000Y-80250000D03*
%TD*%
D12*
%TO.C,C2*%
X125250000Y-70162500D03*
X125250000Y-71887500D03*
%TD*%
D18*
%TO.C,R2*%
X116362500Y-90500000D03*
X114637500Y-90500000D03*
%TD*%
D10*
%TO.C,J4*%
X132000000Y-86960000D03*
D11*
X132000000Y-89500000D03*
X132000000Y-92040000D03*
%TD*%
D25*
%TO.C,J1*%
X144000000Y-64350000D03*
D26*
X144000000Y-58050000D03*
D27*
X139200000Y-61450000D03*
%TD*%
D10*
%TO.C,J8*%
X102000000Y-62000000D03*
D11*
X102000000Y-64540000D03*
X102000000Y-67080000D03*
X102000000Y-69620000D03*
X102000000Y-72160000D03*
X102000000Y-74700000D03*
X102000000Y-77240000D03*
X102000000Y-79780000D03*
X102000000Y-82320000D03*
X102000000Y-84860000D03*
X102000000Y-87400000D03*
X102000000Y-89940000D03*
X102000000Y-92480000D03*
X102000000Y-95020000D03*
%TD*%
D18*
%TO.C,R8*%
X127862500Y-88500000D03*
X126137500Y-88500000D03*
%TD*%
D10*
%TO.C,J2*%
X134500000Y-52000000D03*
D11*
X131960000Y-52000000D03*
X129420000Y-52000000D03*
X126880000Y-52000000D03*
X124340000Y-52000000D03*
X121800000Y-52000000D03*
X119260000Y-52000000D03*
X116720000Y-52000000D03*
%TD*%
D10*
%TO.C,J7*%
X123275000Y-97500000D03*
D11*
X120735000Y-97500000D03*
%TD*%
M02*
