%TF.GenerationSoftware,KiCad,Pcbnew,(5.99.0-12896-g1860893d63)*%
%TF.CreationDate,2021-10-23T11:38:25+08:00*%
%TF.ProjectId,GD32_SPINE,47443332-5f53-4504-994e-452e6b696361,rev?*%
%TF.SameCoordinates,Original*%
%TF.FileFunction,Legend,Top*%
%TF.FilePolarity,Positive*%
%FSLAX46Y46*%
G04 Gerber Fmt 4.6, Leading zero omitted, Abs format (unit mm)*
G04 Created by KiCad (PCBNEW (5.99.0-12896-g1860893d63)) date 2021-10-23 11:38:25*
%MOMM*%
%LPD*%
G01*
G04 APERTURE LIST*
G04 Aperture macros list*
%AMRoundRect*
0 Rectangle with rounded corners*
0 $1 Rounding radius*
0 $2 $3 $4 $5 $6 $7 $8 $9 X,Y pos of 4 corners*
0 Add a 4 corners polygon primitive as box body*
4,1,4,$2,$3,$4,$5,$6,$7,$8,$9,$2,$3,0*
0 Add four circle primitives for the rounded corners*
1,1,$1+$1,$2,$3*
1,1,$1+$1,$4,$5*
1,1,$1+$1,$6,$7*
1,1,$1+$1,$8,$9*
0 Add four rect primitives between the rounded corners*
20,1,$1+$1,$2,$3,$4,$5,0*
20,1,$1+$1,$4,$5,$6,$7,0*
20,1,$1+$1,$6,$7,$8,$9,0*
20,1,$1+$1,$8,$9,$2,$3,0*%
G04 Aperture macros list end*
%ADD10C,0.150000*%
%ADD11C,0.120000*%
%ADD12R,1.700000X1.700000*%
%ADD13O,1.700000X1.700000*%
%ADD14RoundRect,0.135000X-0.185000X0.135000X-0.185000X-0.135000X0.185000X-0.135000X0.185000X0.135000X0*%
%ADD15RoundRect,0.140000X-0.170000X0.140000X-0.170000X-0.140000X0.170000X-0.140000X0.170000X0.140000X0*%
%ADD16RoundRect,0.135000X0.185000X-0.135000X0.185000X0.135000X-0.185000X0.135000X-0.185000X-0.135000X0*%
%ADD17RoundRect,0.140000X0.140000X0.170000X-0.140000X0.170000X-0.140000X-0.170000X0.140000X-0.170000X0*%
%ADD18RoundRect,0.150000X-0.150000X0.825000X-0.150000X-0.825000X0.150000X-0.825000X0.150000X0.825000X0*%
%ADD19RoundRect,0.135000X0.135000X0.185000X-0.135000X0.185000X-0.135000X-0.185000X0.135000X-0.185000X0*%
%ADD20R,1.200000X1.400000*%
%ADD21R,2.000000X1.500000*%
%ADD22R,2.000000X3.800000*%
%ADD23RoundRect,0.075000X0.662500X0.075000X-0.662500X0.075000X-0.662500X-0.075000X0.662500X-0.075000X0*%
%ADD24RoundRect,0.075000X0.075000X0.662500X-0.075000X0.662500X-0.075000X-0.662500X0.075000X-0.662500X0*%
%ADD25RoundRect,0.140000X0.170000X-0.140000X0.170000X0.140000X-0.170000X0.140000X-0.170000X-0.140000X0*%
%ADD26R,4.600000X2.000000*%
%ADD27O,4.200000X2.000000*%
%ADD28O,2.000000X4.200000*%
G04 APERTURE END LIST*
D10*
X125109404Y-63585000D02*
X125014166Y-63537380D01*
X124871309Y-63537380D01*
X124728452Y-63585000D01*
X124633214Y-63680238D01*
X124585595Y-63775476D01*
X124537976Y-63965952D01*
X124537976Y-64108809D01*
X124585595Y-64299285D01*
X124633214Y-64394523D01*
X124728452Y-64489761D01*
X124871309Y-64537380D01*
X124966547Y-64537380D01*
X125109404Y-64489761D01*
X125157023Y-64442142D01*
X125157023Y-64108809D01*
X124966547Y-64108809D01*
X125585595Y-64537380D02*
X125585595Y-63537380D01*
X125823690Y-63537380D01*
X125966547Y-63585000D01*
X126061785Y-63680238D01*
X126109404Y-63775476D01*
X126157023Y-63965952D01*
X126157023Y-64108809D01*
X126109404Y-64299285D01*
X126061785Y-64394523D01*
X125966547Y-64489761D01*
X125823690Y-64537380D01*
X125585595Y-64537380D01*
X126490357Y-63537380D02*
X127109404Y-63537380D01*
X126776071Y-63918333D01*
X126918928Y-63918333D01*
X127014166Y-63965952D01*
X127061785Y-64013571D01*
X127109404Y-64108809D01*
X127109404Y-64346904D01*
X127061785Y-64442142D01*
X127014166Y-64489761D01*
X126918928Y-64537380D01*
X126633214Y-64537380D01*
X126537976Y-64489761D01*
X126490357Y-64442142D01*
X127490357Y-63632619D02*
X127537976Y-63585000D01*
X127633214Y-63537380D01*
X127871309Y-63537380D01*
X127966547Y-63585000D01*
X128014166Y-63632619D01*
X128061785Y-63727857D01*
X128061785Y-63823095D01*
X128014166Y-63965952D01*
X127442738Y-64537380D01*
X128061785Y-64537380D01*
X129204642Y-64489761D02*
X129347500Y-64537380D01*
X129585595Y-64537380D01*
X129680833Y-64489761D01*
X129728452Y-64442142D01*
X129776071Y-64346904D01*
X129776071Y-64251666D01*
X129728452Y-64156428D01*
X129680833Y-64108809D01*
X129585595Y-64061190D01*
X129395119Y-64013571D01*
X129299880Y-63965952D01*
X129252261Y-63918333D01*
X129204642Y-63823095D01*
X129204642Y-63727857D01*
X129252261Y-63632619D01*
X129299880Y-63585000D01*
X129395119Y-63537380D01*
X129633214Y-63537380D01*
X129776071Y-63585000D01*
X130204642Y-64537380D02*
X130204642Y-63537380D01*
X130585595Y-63537380D01*
X130680833Y-63585000D01*
X130728452Y-63632619D01*
X130776071Y-63727857D01*
X130776071Y-63870714D01*
X130728452Y-63965952D01*
X130680833Y-64013571D01*
X130585595Y-64061190D01*
X130204642Y-64061190D01*
X131204642Y-64537380D02*
X131204642Y-63537380D01*
X131680833Y-64537380D02*
X131680833Y-63537380D01*
X132252261Y-64537380D01*
X132252261Y-63537380D01*
X132728452Y-64013571D02*
X133061785Y-64013571D01*
X133204642Y-64537380D02*
X132728452Y-64537380D01*
X132728452Y-63537380D01*
X133204642Y-63537380D01*
X124918928Y-65623571D02*
X125061785Y-65671190D01*
X125109404Y-65718809D01*
X125157023Y-65814047D01*
X125157023Y-65956904D01*
X125109404Y-66052142D01*
X125061785Y-66099761D01*
X124966547Y-66147380D01*
X124585595Y-66147380D01*
X124585595Y-65147380D01*
X124918928Y-65147380D01*
X125014166Y-65195000D01*
X125061785Y-65242619D01*
X125109404Y-65337857D01*
X125109404Y-65433095D01*
X125061785Y-65528333D01*
X125014166Y-65575952D01*
X124918928Y-65623571D01*
X124585595Y-65623571D01*
X125490357Y-65480714D02*
X125728452Y-66147380D01*
X125966547Y-65480714D02*
X125728452Y-66147380D01*
X125633214Y-66385476D01*
X125585595Y-66433095D01*
X125490357Y-66480714D01*
X127061785Y-65861666D02*
X127537976Y-65861666D01*
X126966547Y-66147380D02*
X127299880Y-65147380D01*
X127633214Y-66147380D01*
X127918928Y-66099761D02*
X128014166Y-66147380D01*
X128204642Y-66147380D01*
X128299880Y-66099761D01*
X128347500Y-66004523D01*
X128347500Y-65956904D01*
X128299880Y-65861666D01*
X128204642Y-65814047D01*
X128061785Y-65814047D01*
X127966547Y-65766428D01*
X127918928Y-65671190D01*
X127918928Y-65623571D01*
X127966547Y-65528333D01*
X128061785Y-65480714D01*
X128204642Y-65480714D01*
X128299880Y-65528333D01*
X128776071Y-66147380D02*
X128776071Y-65147380D01*
X129204642Y-66147380D02*
X129204642Y-65623571D01*
X129157023Y-65528333D01*
X129061785Y-65480714D01*
X128918928Y-65480714D01*
X128823690Y-65528333D01*
X128776071Y-65575952D01*
X129823690Y-66147380D02*
X129728452Y-66099761D01*
X129680833Y-66004523D01*
X129680833Y-65147380D01*
X130585595Y-66099761D02*
X130490357Y-66147380D01*
X130299880Y-66147380D01*
X130204642Y-66099761D01*
X130157023Y-66004523D01*
X130157023Y-65623571D01*
X130204642Y-65528333D01*
X130299880Y-65480714D01*
X130490357Y-65480714D01*
X130585595Y-65528333D01*
X130633214Y-65623571D01*
X130633214Y-65718809D01*
X130157023Y-65814047D01*
X131442738Y-66099761D02*
X131347500Y-66147380D01*
X131157023Y-66147380D01*
X131061785Y-66099761D01*
X131014166Y-66004523D01*
X131014166Y-65623571D01*
X131061785Y-65528333D01*
X131157023Y-65480714D01*
X131347500Y-65480714D01*
X131442738Y-65528333D01*
X131490357Y-65623571D01*
X131490357Y-65718809D01*
X131014166Y-65814047D01*
X124776071Y-66757380D02*
X124966547Y-66757380D01*
X125061785Y-66805000D01*
X125157023Y-66900238D01*
X125204642Y-67090714D01*
X125204642Y-67424047D01*
X125157023Y-67614523D01*
X125061785Y-67709761D01*
X124966547Y-67757380D01*
X124776071Y-67757380D01*
X124680833Y-67709761D01*
X124585595Y-67614523D01*
X124537976Y-67424047D01*
X124537976Y-67090714D01*
X124585595Y-66900238D01*
X124680833Y-66805000D01*
X124776071Y-66757380D01*
X126061785Y-67709761D02*
X125966547Y-67757380D01*
X125776071Y-67757380D01*
X125680833Y-67709761D01*
X125633214Y-67662142D01*
X125585595Y-67566904D01*
X125585595Y-67281190D01*
X125633214Y-67185952D01*
X125680833Y-67138333D01*
X125776071Y-67090714D01*
X125966547Y-67090714D01*
X126061785Y-67138333D01*
X126347500Y-67090714D02*
X126728452Y-67090714D01*
X126490357Y-66757380D02*
X126490357Y-67614523D01*
X126537976Y-67709761D01*
X126633214Y-67757380D01*
X126728452Y-67757380D01*
X127776071Y-66852619D02*
X127823690Y-66805000D01*
X127918928Y-66757380D01*
X128157023Y-66757380D01*
X128252261Y-66805000D01*
X128299880Y-66852619D01*
X128347500Y-66947857D01*
X128347500Y-67043095D01*
X128299880Y-67185952D01*
X127728452Y-67757380D01*
X128347500Y-67757380D01*
X128680833Y-66757380D02*
X129299880Y-66757380D01*
X128966547Y-67138333D01*
X129109404Y-67138333D01*
X129204642Y-67185952D01*
X129252261Y-67233571D01*
X129299880Y-67328809D01*
X129299880Y-67566904D01*
X129252261Y-67662142D01*
X129204642Y-67709761D01*
X129109404Y-67757380D01*
X128823690Y-67757380D01*
X128728452Y-67709761D01*
X128680833Y-67662142D01*
X129776071Y-67709761D02*
X129776071Y-67757380D01*
X129728452Y-67852619D01*
X129680833Y-67900238D01*
X130918928Y-66852619D02*
X130966547Y-66805000D01*
X131061785Y-66757380D01*
X131299880Y-66757380D01*
X131395119Y-66805000D01*
X131442738Y-66852619D01*
X131490357Y-66947857D01*
X131490357Y-67043095D01*
X131442738Y-67185952D01*
X130871309Y-67757380D01*
X131490357Y-67757380D01*
X132109404Y-66757380D02*
X132204642Y-66757380D01*
X132299880Y-66805000D01*
X132347500Y-66852619D01*
X132395119Y-66947857D01*
X132442738Y-67138333D01*
X132442738Y-67376428D01*
X132395119Y-67566904D01*
X132347500Y-67662142D01*
X132299880Y-67709761D01*
X132204642Y-67757380D01*
X132109404Y-67757380D01*
X132014166Y-67709761D01*
X131966547Y-67662142D01*
X131918928Y-67566904D01*
X131871309Y-67376428D01*
X131871309Y-67138333D01*
X131918928Y-66947857D01*
X131966547Y-66852619D01*
X132014166Y-66805000D01*
X132109404Y-66757380D01*
X132823690Y-66852619D02*
X132871309Y-66805000D01*
X132966547Y-66757380D01*
X133204642Y-66757380D01*
X133299880Y-66805000D01*
X133347500Y-66852619D01*
X133395119Y-66947857D01*
X133395119Y-67043095D01*
X133347500Y-67185952D01*
X132776071Y-67757380D01*
X133395119Y-67757380D01*
X134347500Y-67757380D02*
X133776071Y-67757380D01*
X134061785Y-67757380D02*
X134061785Y-66757380D01*
X133966547Y-66900238D01*
X133871309Y-66995476D01*
X133776071Y-67043095D01*
X124442738Y-68367380D02*
X124776071Y-69367380D01*
X125109404Y-68367380D01*
X125823690Y-69319761D02*
X125728452Y-69367380D01*
X125537976Y-69367380D01*
X125442738Y-69319761D01*
X125395119Y-69224523D01*
X125395119Y-68843571D01*
X125442738Y-68748333D01*
X125537976Y-68700714D01*
X125728452Y-68700714D01*
X125823690Y-68748333D01*
X125871309Y-68843571D01*
X125871309Y-68938809D01*
X125395119Y-69034047D01*
X126299880Y-69367380D02*
X126299880Y-68700714D01*
X126299880Y-68891190D02*
X126347500Y-68795952D01*
X126395119Y-68748333D01*
X126490357Y-68700714D01*
X126585595Y-68700714D01*
X126871309Y-69319761D02*
X126966547Y-69367380D01*
X127157023Y-69367380D01*
X127252261Y-69319761D01*
X127299880Y-69224523D01*
X127299880Y-69176904D01*
X127252261Y-69081666D01*
X127157023Y-69034047D01*
X127014166Y-69034047D01*
X126918928Y-68986428D01*
X126871309Y-68891190D01*
X126871309Y-68843571D01*
X126918928Y-68748333D01*
X127014166Y-68700714D01*
X127157023Y-68700714D01*
X127252261Y-68748333D01*
X127728452Y-69367380D02*
X127728452Y-68700714D01*
X127728452Y-68367380D02*
X127680833Y-68415000D01*
X127728452Y-68462619D01*
X127776071Y-68415000D01*
X127728452Y-68367380D01*
X127728452Y-68462619D01*
X128347500Y-69367380D02*
X128252261Y-69319761D01*
X128204642Y-69272142D01*
X128157023Y-69176904D01*
X128157023Y-68891190D01*
X128204642Y-68795952D01*
X128252261Y-68748333D01*
X128347500Y-68700714D01*
X128490357Y-68700714D01*
X128585595Y-68748333D01*
X128633214Y-68795952D01*
X128680833Y-68891190D01*
X128680833Y-69176904D01*
X128633214Y-69272142D01*
X128585595Y-69319761D01*
X128490357Y-69367380D01*
X128347500Y-69367380D01*
X129109404Y-68700714D02*
X129109404Y-69367380D01*
X129109404Y-68795952D02*
X129157023Y-68748333D01*
X129252261Y-68700714D01*
X129395119Y-68700714D01*
X129490357Y-68748333D01*
X129537976Y-68843571D01*
X129537976Y-69367380D01*
X130966547Y-68367380D02*
X131061785Y-68367380D01*
X131157023Y-68415000D01*
X131204642Y-68462619D01*
X131252261Y-68557857D01*
X131299880Y-68748333D01*
X131299880Y-68986428D01*
X131252261Y-69176904D01*
X131204642Y-69272142D01*
X131157023Y-69319761D01*
X131061785Y-69367380D01*
X130966547Y-69367380D01*
X130871309Y-69319761D01*
X130823690Y-69272142D01*
X130776071Y-69176904D01*
X130728452Y-68986428D01*
X130728452Y-68748333D01*
X130776071Y-68557857D01*
X130823690Y-68462619D01*
X130871309Y-68415000D01*
X130966547Y-68367380D01*
X131728452Y-69272142D02*
X131776071Y-69319761D01*
X131728452Y-69367380D01*
X131680833Y-69319761D01*
X131728452Y-69272142D01*
X131728452Y-69367380D01*
X132728452Y-69367380D02*
X132157023Y-69367380D01*
X132442738Y-69367380D02*
X132442738Y-68367380D01*
X132347500Y-68510238D01*
X132252261Y-68605476D01*
X132157023Y-68653095D01*
%TO.C,J9*%
X142922666Y-81622380D02*
X142922666Y-82336666D01*
X142875047Y-82479523D01*
X142779809Y-82574761D01*
X142636952Y-82622380D01*
X142541714Y-82622380D01*
X143446476Y-82622380D02*
X143636952Y-82622380D01*
X143732190Y-82574761D01*
X143779809Y-82527142D01*
X143875047Y-82384285D01*
X143922666Y-82193809D01*
X143922666Y-81812857D01*
X143875047Y-81717619D01*
X143827428Y-81670000D01*
X143732190Y-81622380D01*
X143541714Y-81622380D01*
X143446476Y-81670000D01*
X143398857Y-81717619D01*
X143351238Y-81812857D01*
X143351238Y-82050952D01*
X143398857Y-82146190D01*
X143446476Y-82193809D01*
X143541714Y-82241428D01*
X143732190Y-82241428D01*
X143827428Y-82193809D01*
X143875047Y-82146190D01*
X143922666Y-82050952D01*
%TO.C,R5*%
X139202380Y-81166666D02*
X138726190Y-81500000D01*
X139202380Y-81738095D02*
X138202380Y-81738095D01*
X138202380Y-81357142D01*
X138250000Y-81261904D01*
X138297619Y-81214285D01*
X138392857Y-81166666D01*
X138535714Y-81166666D01*
X138630952Y-81214285D01*
X138678571Y-81261904D01*
X138726190Y-81357142D01*
X138726190Y-81738095D01*
X138202380Y-80261904D02*
X138202380Y-80738095D01*
X138678571Y-80785714D01*
X138630952Y-80738095D01*
X138583333Y-80642857D01*
X138583333Y-80404761D01*
X138630952Y-80309523D01*
X138678571Y-80261904D01*
X138773809Y-80214285D01*
X139011904Y-80214285D01*
X139107142Y-80261904D01*
X139154761Y-80309523D01*
X139202380Y-80404761D01*
X139202380Y-80642857D01*
X139154761Y-80738095D01*
X139107142Y-80785714D01*
%TO.C,J6*%
X136282380Y-56333333D02*
X136996666Y-56333333D01*
X137139523Y-56380952D01*
X137234761Y-56476190D01*
X137282380Y-56619047D01*
X137282380Y-56714285D01*
X136282380Y-55428571D02*
X136282380Y-55619047D01*
X136330000Y-55714285D01*
X136377619Y-55761904D01*
X136520476Y-55857142D01*
X136710952Y-55904761D01*
X137091904Y-55904761D01*
X137187142Y-55857142D01*
X137234761Y-55809523D01*
X137282380Y-55714285D01*
X137282380Y-55523809D01*
X137234761Y-55428571D01*
X137187142Y-55380952D01*
X137091904Y-55333333D01*
X136853809Y-55333333D01*
X136758571Y-55380952D01*
X136710952Y-55428571D01*
X136663333Y-55523809D01*
X136663333Y-55714285D01*
X136710952Y-55809523D01*
X136758571Y-55857142D01*
X136853809Y-55904761D01*
%TO.C,SW1*%
X109734761Y-57333333D02*
X109782380Y-57190476D01*
X109782380Y-56952380D01*
X109734761Y-56857142D01*
X109687142Y-56809523D01*
X109591904Y-56761904D01*
X109496666Y-56761904D01*
X109401428Y-56809523D01*
X109353809Y-56857142D01*
X109306190Y-56952380D01*
X109258571Y-57142857D01*
X109210952Y-57238095D01*
X109163333Y-57285714D01*
X109068095Y-57333333D01*
X108972857Y-57333333D01*
X108877619Y-57285714D01*
X108830000Y-57238095D01*
X108782380Y-57142857D01*
X108782380Y-56904761D01*
X108830000Y-56761904D01*
X108782380Y-56428571D02*
X109782380Y-56190476D01*
X109068095Y-56000000D01*
X109782380Y-55809523D01*
X108782380Y-55571428D01*
X109782380Y-54666666D02*
X109782380Y-55238095D01*
X109782380Y-54952380D02*
X108782380Y-54952380D01*
X108925238Y-55047619D01*
X109020476Y-55142857D01*
X109068095Y-55238095D01*
%TO.C,C1*%
X133517142Y-74166666D02*
X133564761Y-74214285D01*
X133612380Y-74357142D01*
X133612380Y-74452380D01*
X133564761Y-74595238D01*
X133469523Y-74690476D01*
X133374285Y-74738095D01*
X133183809Y-74785714D01*
X133040952Y-74785714D01*
X132850476Y-74738095D01*
X132755238Y-74690476D01*
X132660000Y-74595238D01*
X132612380Y-74452380D01*
X132612380Y-74357142D01*
X132660000Y-74214285D01*
X132707619Y-74166666D01*
X133612380Y-73214285D02*
X133612380Y-73785714D01*
X133612380Y-73500000D02*
X132612380Y-73500000D01*
X132755238Y-73595238D01*
X132850476Y-73690476D01*
X132898095Y-73785714D01*
%TO.C,R3*%
X135202380Y-81166666D02*
X134726190Y-81500000D01*
X135202380Y-81738095D02*
X134202380Y-81738095D01*
X134202380Y-81357142D01*
X134250000Y-81261904D01*
X134297619Y-81214285D01*
X134392857Y-81166666D01*
X134535714Y-81166666D01*
X134630952Y-81214285D01*
X134678571Y-81261904D01*
X134726190Y-81357142D01*
X134726190Y-81738095D01*
X134202380Y-80833333D02*
X134202380Y-80214285D01*
X134583333Y-80547619D01*
X134583333Y-80404761D01*
X134630952Y-80309523D01*
X134678571Y-80261904D01*
X134773809Y-80214285D01*
X135011904Y-80214285D01*
X135107142Y-80261904D01*
X135154761Y-80309523D01*
X135202380Y-80404761D01*
X135202380Y-80690476D01*
X135154761Y-80785714D01*
X135107142Y-80833333D01*
%TO.C,R7*%
X110702380Y-62916666D02*
X110226190Y-63250000D01*
X110702380Y-63488095D02*
X109702380Y-63488095D01*
X109702380Y-63107142D01*
X109750000Y-63011904D01*
X109797619Y-62964285D01*
X109892857Y-62916666D01*
X110035714Y-62916666D01*
X110130952Y-62964285D01*
X110178571Y-63011904D01*
X110226190Y-63107142D01*
X110226190Y-63488095D01*
X109702380Y-62583333D02*
X109702380Y-61916666D01*
X110702380Y-62345238D01*
%TO.C,J5*%
X136666666Y-84082380D02*
X136666666Y-84796666D01*
X136619047Y-84939523D01*
X136523809Y-85034761D01*
X136380952Y-85082380D01*
X136285714Y-85082380D01*
X137619047Y-84082380D02*
X137142857Y-84082380D01*
X137095238Y-84558571D01*
X137142857Y-84510952D01*
X137238095Y-84463333D01*
X137476190Y-84463333D01*
X137571428Y-84510952D01*
X137619047Y-84558571D01*
X137666666Y-84653809D01*
X137666666Y-84891904D01*
X137619047Y-84987142D01*
X137571428Y-85034761D01*
X137476190Y-85082380D01*
X137238095Y-85082380D01*
X137142857Y-85034761D01*
X137095238Y-84987142D01*
%TO.C,C6*%
X139333333Y-72767142D02*
X139285714Y-72814761D01*
X139142857Y-72862380D01*
X139047619Y-72862380D01*
X138904761Y-72814761D01*
X138809523Y-72719523D01*
X138761904Y-72624285D01*
X138714285Y-72433809D01*
X138714285Y-72290952D01*
X138761904Y-72100476D01*
X138809523Y-72005238D01*
X138904761Y-71910000D01*
X139047619Y-71862380D01*
X139142857Y-71862380D01*
X139285714Y-71910000D01*
X139333333Y-71957619D01*
X140190476Y-71862380D02*
X140000000Y-71862380D01*
X139904761Y-71910000D01*
X139857142Y-71957619D01*
X139761904Y-72100476D01*
X139714285Y-72290952D01*
X139714285Y-72671904D01*
X139761904Y-72767142D01*
X139809523Y-72814761D01*
X139904761Y-72862380D01*
X140095238Y-72862380D01*
X140190476Y-72814761D01*
X140238095Y-72767142D01*
X140285714Y-72671904D01*
X140285714Y-72433809D01*
X140238095Y-72338571D01*
X140190476Y-72290952D01*
X140095238Y-72243333D01*
X139904761Y-72243333D01*
X139809523Y-72290952D01*
X139761904Y-72338571D01*
X139714285Y-72433809D01*
%TO.C,C5*%
X139441169Y-67857142D02*
X139393550Y-67904761D01*
X139250693Y-67952380D01*
X139155455Y-67952380D01*
X139012597Y-67904761D01*
X138917359Y-67809523D01*
X138869740Y-67714285D01*
X138822121Y-67523809D01*
X138822121Y-67380952D01*
X138869740Y-67190476D01*
X138917359Y-67095238D01*
X139012597Y-67000000D01*
X139155455Y-66952380D01*
X139250693Y-66952380D01*
X139393550Y-67000000D01*
X139441169Y-67047619D01*
X140345931Y-66952380D02*
X139869740Y-66952380D01*
X139822121Y-67428571D01*
X139869740Y-67380952D01*
X139964978Y-67333333D01*
X140203074Y-67333333D01*
X140298312Y-67380952D01*
X140345931Y-67428571D01*
X140393550Y-67523809D01*
X140393550Y-67761904D01*
X140345931Y-67857142D01*
X140298312Y-67904761D01*
X140203074Y-67952380D01*
X139964978Y-67952380D01*
X139869740Y-67904761D01*
X139822121Y-67857142D01*
%TO.C,R4*%
X134782380Y-97666666D02*
X134306190Y-98000000D01*
X134782380Y-98238095D02*
X133782380Y-98238095D01*
X133782380Y-97857142D01*
X133830000Y-97761904D01*
X133877619Y-97714285D01*
X133972857Y-97666666D01*
X134115714Y-97666666D01*
X134210952Y-97714285D01*
X134258571Y-97761904D01*
X134306190Y-97857142D01*
X134306190Y-98238095D01*
X134115714Y-96809523D02*
X134782380Y-96809523D01*
X133734761Y-97047619D02*
X134449047Y-97285714D01*
X134449047Y-96666666D01*
%TO.C,C9*%
X108607142Y-61916666D02*
X108654761Y-61964285D01*
X108702380Y-62107142D01*
X108702380Y-62202380D01*
X108654761Y-62345238D01*
X108559523Y-62440476D01*
X108464285Y-62488095D01*
X108273809Y-62535714D01*
X108130952Y-62535714D01*
X107940476Y-62488095D01*
X107845238Y-62440476D01*
X107750000Y-62345238D01*
X107702380Y-62202380D01*
X107702380Y-62107142D01*
X107750000Y-61964285D01*
X107797619Y-61916666D01*
X108702380Y-61440476D02*
X108702380Y-61250000D01*
X108654761Y-61154761D01*
X108607142Y-61107142D01*
X108464285Y-61011904D01*
X108273809Y-60964285D01*
X107892857Y-60964285D01*
X107797619Y-61011904D01*
X107750000Y-61059523D01*
X107702380Y-61154761D01*
X107702380Y-61345238D01*
X107750000Y-61440476D01*
X107797619Y-61488095D01*
X107892857Y-61535714D01*
X108130952Y-61535714D01*
X108226190Y-61488095D01*
X108273809Y-61440476D01*
X108321428Y-61345238D01*
X108321428Y-61154761D01*
X108273809Y-61059523D01*
X108226190Y-61011904D01*
X108130952Y-60964285D01*
%TO.C,U3*%
X122352380Y-90761904D02*
X123161904Y-90761904D01*
X123257142Y-90714285D01*
X123304761Y-90666666D01*
X123352380Y-90571428D01*
X123352380Y-90380952D01*
X123304761Y-90285714D01*
X123257142Y-90238095D01*
X123161904Y-90190476D01*
X122352380Y-90190476D01*
X122352380Y-89809523D02*
X122352380Y-89190476D01*
X122733333Y-89523809D01*
X122733333Y-89380952D01*
X122780952Y-89285714D01*
X122828571Y-89238095D01*
X122923809Y-89190476D01*
X123161904Y-89190476D01*
X123257142Y-89238095D01*
X123304761Y-89285714D01*
X123352380Y-89380952D01*
X123352380Y-89666666D01*
X123304761Y-89761904D01*
X123257142Y-89809523D01*
%TO.C,C3*%
X133517142Y-79666666D02*
X133564761Y-79714285D01*
X133612380Y-79857142D01*
X133612380Y-79952380D01*
X133564761Y-80095238D01*
X133469523Y-80190476D01*
X133374285Y-80238095D01*
X133183809Y-80285714D01*
X133040952Y-80285714D01*
X132850476Y-80238095D01*
X132755238Y-80190476D01*
X132660000Y-80095238D01*
X132612380Y-79952380D01*
X132612380Y-79857142D01*
X132660000Y-79714285D01*
X132707619Y-79666666D01*
X132612380Y-79333333D02*
X132612380Y-78714285D01*
X132993333Y-79047619D01*
X132993333Y-78904761D01*
X133040952Y-78809523D01*
X133088571Y-78761904D01*
X133183809Y-78714285D01*
X133421904Y-78714285D01*
X133517142Y-78761904D01*
X133564761Y-78809523D01*
X133612380Y-78904761D01*
X133612380Y-79190476D01*
X133564761Y-79285714D01*
X133517142Y-79333333D01*
%TO.C,R9*%
X128083333Y-94452380D02*
X127750000Y-93976190D01*
X127511904Y-94452380D02*
X127511904Y-93452380D01*
X127892857Y-93452380D01*
X127988095Y-93500000D01*
X128035714Y-93547619D01*
X128083333Y-93642857D01*
X128083333Y-93785714D01*
X128035714Y-93880952D01*
X127988095Y-93928571D01*
X127892857Y-93976190D01*
X127511904Y-93976190D01*
X128559523Y-94452380D02*
X128750000Y-94452380D01*
X128845238Y-94404761D01*
X128892857Y-94357142D01*
X128988095Y-94214285D01*
X129035714Y-94023809D01*
X129035714Y-93642857D01*
X128988095Y-93547619D01*
X128940476Y-93500000D01*
X128845238Y-93452380D01*
X128654761Y-93452380D01*
X128559523Y-93500000D01*
X128511904Y-93547619D01*
X128464285Y-93642857D01*
X128464285Y-93880952D01*
X128511904Y-93976190D01*
X128559523Y-94023809D01*
X128654761Y-94071428D01*
X128845238Y-94071428D01*
X128940476Y-94023809D01*
X128988095Y-93976190D01*
X129035714Y-93880952D01*
%TO.C,J11*%
X142190476Y-65847380D02*
X142190476Y-66561666D01*
X142142857Y-66704523D01*
X142047619Y-66799761D01*
X141904761Y-66847380D01*
X141809523Y-66847380D01*
X143190476Y-66847380D02*
X142619047Y-66847380D01*
X142904761Y-66847380D02*
X142904761Y-65847380D01*
X142809523Y-65990238D01*
X142714285Y-66085476D01*
X142619047Y-66133095D01*
X144142857Y-66847380D02*
X143571428Y-66847380D01*
X143857142Y-66847380D02*
X143857142Y-65847380D01*
X143761904Y-65990238D01*
X143666666Y-66085476D01*
X143571428Y-66133095D01*
%TO.C,U4*%
X114852380Y-90761904D02*
X115661904Y-90761904D01*
X115757142Y-90714285D01*
X115804761Y-90666666D01*
X115852380Y-90571428D01*
X115852380Y-90380952D01*
X115804761Y-90285714D01*
X115757142Y-90238095D01*
X115661904Y-90190476D01*
X114852380Y-90190476D01*
X115185714Y-89285714D02*
X115852380Y-89285714D01*
X114804761Y-89523809D02*
X115519047Y-89761904D01*
X115519047Y-89142857D01*
%TO.C,Y1*%
X130426190Y-73476190D02*
X130902380Y-73476190D01*
X129902380Y-73809523D02*
X130426190Y-73476190D01*
X129902380Y-73142857D01*
X130902380Y-72285714D02*
X130902380Y-72857142D01*
X130902380Y-72571428D02*
X129902380Y-72571428D01*
X130045238Y-72666666D01*
X130140476Y-72761904D01*
X130188095Y-72857142D01*
%TO.C,J12*%
X146190476Y-65847380D02*
X146190476Y-66561666D01*
X146142857Y-66704523D01*
X146047619Y-66799761D01*
X145904761Y-66847380D01*
X145809523Y-66847380D01*
X147190476Y-66847380D02*
X146619047Y-66847380D01*
X146904761Y-66847380D02*
X146904761Y-65847380D01*
X146809523Y-65990238D01*
X146714285Y-66085476D01*
X146619047Y-66133095D01*
X147571428Y-65942619D02*
X147619047Y-65895000D01*
X147714285Y-65847380D01*
X147952380Y-65847380D01*
X148047619Y-65895000D01*
X148095238Y-65942619D01*
X148142857Y-66037857D01*
X148142857Y-66133095D01*
X148095238Y-66275952D01*
X147523809Y-66847380D01*
X148142857Y-66847380D01*
%TO.C,J3*%
X113782380Y-52333333D02*
X114496666Y-52333333D01*
X114639523Y-52380952D01*
X114734761Y-52476190D01*
X114782380Y-52619047D01*
X114782380Y-52714285D01*
X113782380Y-51952380D02*
X113782380Y-51333333D01*
X114163333Y-51666666D01*
X114163333Y-51523809D01*
X114210952Y-51428571D01*
X114258571Y-51380952D01*
X114353809Y-51333333D01*
X114591904Y-51333333D01*
X114687142Y-51380952D01*
X114734761Y-51428571D01*
X114782380Y-51523809D01*
X114782380Y-51809523D01*
X114734761Y-51904761D01*
X114687142Y-51952380D01*
%TO.C,R1*%
X128083333Y-87452380D02*
X127750000Y-86976190D01*
X127511904Y-87452380D02*
X127511904Y-86452380D01*
X127892857Y-86452380D01*
X127988095Y-86500000D01*
X128035714Y-86547619D01*
X128083333Y-86642857D01*
X128083333Y-86785714D01*
X128035714Y-86880952D01*
X127988095Y-86928571D01*
X127892857Y-86976190D01*
X127511904Y-86976190D01*
X129035714Y-87452380D02*
X128464285Y-87452380D01*
X128750000Y-87452380D02*
X128750000Y-86452380D01*
X128654761Y-86595238D01*
X128559523Y-86690476D01*
X128464285Y-86738095D01*
%TO.C,U2*%
X140488095Y-80202380D02*
X140488095Y-81011904D01*
X140535714Y-81107142D01*
X140583333Y-81154761D01*
X140678571Y-81202380D01*
X140869047Y-81202380D01*
X140964285Y-81154761D01*
X141011904Y-81107142D01*
X141059523Y-81011904D01*
X141059523Y-80202380D01*
X141488095Y-80297619D02*
X141535714Y-80250000D01*
X141630952Y-80202380D01*
X141869047Y-80202380D01*
X141964285Y-80250000D01*
X142011904Y-80297619D01*
X142059523Y-80392857D01*
X142059523Y-80488095D01*
X142011904Y-80630952D01*
X141440476Y-81202380D01*
X142059523Y-81202380D01*
%TO.C,C8*%
X137833333Y-75107142D02*
X137785714Y-75154761D01*
X137642857Y-75202380D01*
X137547619Y-75202380D01*
X137404761Y-75154761D01*
X137309523Y-75059523D01*
X137261904Y-74964285D01*
X137214285Y-74773809D01*
X137214285Y-74630952D01*
X137261904Y-74440476D01*
X137309523Y-74345238D01*
X137404761Y-74250000D01*
X137547619Y-74202380D01*
X137642857Y-74202380D01*
X137785714Y-74250000D01*
X137833333Y-74297619D01*
X138404761Y-74630952D02*
X138309523Y-74583333D01*
X138261904Y-74535714D01*
X138214285Y-74440476D01*
X138214285Y-74392857D01*
X138261904Y-74297619D01*
X138309523Y-74250000D01*
X138404761Y-74202380D01*
X138595238Y-74202380D01*
X138690476Y-74250000D01*
X138738095Y-74297619D01*
X138785714Y-74392857D01*
X138785714Y-74440476D01*
X138738095Y-74535714D01*
X138690476Y-74583333D01*
X138595238Y-74630952D01*
X138404761Y-74630952D01*
X138309523Y-74678571D01*
X138261904Y-74726190D01*
X138214285Y-74821428D01*
X138214285Y-75011904D01*
X138261904Y-75107142D01*
X138309523Y-75154761D01*
X138404761Y-75202380D01*
X138595238Y-75202380D01*
X138690476Y-75154761D01*
X138738095Y-75107142D01*
X138785714Y-75011904D01*
X138785714Y-74821428D01*
X138738095Y-74726190D01*
X138690476Y-74678571D01*
X138595238Y-74630952D01*
%TO.C,C7*%
X137833333Y-79517142D02*
X137785714Y-79564761D01*
X137642857Y-79612380D01*
X137547619Y-79612380D01*
X137404761Y-79564761D01*
X137309523Y-79469523D01*
X137261904Y-79374285D01*
X137214285Y-79183809D01*
X137214285Y-79040952D01*
X137261904Y-78850476D01*
X137309523Y-78755238D01*
X137404761Y-78660000D01*
X137547619Y-78612380D01*
X137642857Y-78612380D01*
X137785714Y-78660000D01*
X137833333Y-78707619D01*
X138166666Y-78612380D02*
X138833333Y-78612380D01*
X138404761Y-79612380D01*
%TO.C,U1*%
X115062095Y-79802380D02*
X115062095Y-80611904D01*
X115109714Y-80707142D01*
X115157333Y-80754761D01*
X115252571Y-80802380D01*
X115443047Y-80802380D01*
X115538285Y-80754761D01*
X115585904Y-80707142D01*
X115633523Y-80611904D01*
X115633523Y-79802380D01*
X116633523Y-80802380D02*
X116062095Y-80802380D01*
X116347809Y-80802380D02*
X116347809Y-79802380D01*
X116252571Y-79945238D01*
X116157333Y-80040476D01*
X116062095Y-80088095D01*
%TO.C,J10*%
X146510476Y-81622380D02*
X146510476Y-82336666D01*
X146462857Y-82479523D01*
X146367619Y-82574761D01*
X146224761Y-82622380D01*
X146129523Y-82622380D01*
X147510476Y-82622380D02*
X146939047Y-82622380D01*
X147224761Y-82622380D02*
X147224761Y-81622380D01*
X147129523Y-81765238D01*
X147034285Y-81860476D01*
X146939047Y-81908095D01*
X148129523Y-81622380D02*
X148224761Y-81622380D01*
X148320000Y-81670000D01*
X148367619Y-81717619D01*
X148415238Y-81812857D01*
X148462857Y-82003333D01*
X148462857Y-82241428D01*
X148415238Y-82431904D01*
X148367619Y-82527142D01*
X148320000Y-82574761D01*
X148224761Y-82622380D01*
X148129523Y-82622380D01*
X148034285Y-82574761D01*
X147986666Y-82527142D01*
X147939047Y-82431904D01*
X147891428Y-82241428D01*
X147891428Y-82003333D01*
X147939047Y-81812857D01*
X147986666Y-81717619D01*
X148034285Y-81670000D01*
X148129523Y-81622380D01*
%TO.C,C4*%
X133607142Y-77166666D02*
X133654761Y-77214285D01*
X133702380Y-77357142D01*
X133702380Y-77452380D01*
X133654761Y-77595238D01*
X133559523Y-77690476D01*
X133464285Y-77738095D01*
X133273809Y-77785714D01*
X133130952Y-77785714D01*
X132940476Y-77738095D01*
X132845238Y-77690476D01*
X132750000Y-77595238D01*
X132702380Y-77452380D01*
X132702380Y-77357142D01*
X132750000Y-77214285D01*
X132797619Y-77166666D01*
X133035714Y-76309523D02*
X133702380Y-76309523D01*
X132654761Y-76547619D02*
X133369047Y-76785714D01*
X133369047Y-76166666D01*
%TO.C,R6*%
X139202380Y-97666666D02*
X138726190Y-98000000D01*
X139202380Y-98238095D02*
X138202380Y-98238095D01*
X138202380Y-97857142D01*
X138250000Y-97761904D01*
X138297619Y-97714285D01*
X138392857Y-97666666D01*
X138535714Y-97666666D01*
X138630952Y-97714285D01*
X138678571Y-97761904D01*
X138726190Y-97857142D01*
X138726190Y-98238095D01*
X138202380Y-96809523D02*
X138202380Y-97000000D01*
X138250000Y-97095238D01*
X138297619Y-97142857D01*
X138440476Y-97238095D01*
X138630952Y-97285714D01*
X139011904Y-97285714D01*
X139107142Y-97238095D01*
X139154761Y-97190476D01*
X139202380Y-97095238D01*
X139202380Y-96904761D01*
X139154761Y-96809523D01*
X139107142Y-96761904D01*
X139011904Y-96714285D01*
X138773809Y-96714285D01*
X138678571Y-96761904D01*
X138630952Y-96809523D01*
X138583333Y-96904761D01*
X138583333Y-97095238D01*
X138630952Y-97190476D01*
X138678571Y-97238095D01*
X138773809Y-97285714D01*
%TO.C,Y2*%
X130426190Y-78976190D02*
X130902380Y-78976190D01*
X129902380Y-79309523D02*
X130426190Y-78976190D01*
X129902380Y-78642857D01*
X129997619Y-78357142D02*
X129950000Y-78309523D01*
X129902380Y-78214285D01*
X129902380Y-77976190D01*
X129950000Y-77880952D01*
X129997619Y-77833333D01*
X130092857Y-77785714D01*
X130188095Y-77785714D01*
X130330952Y-77833333D01*
X130902380Y-78404761D01*
X130902380Y-77785714D01*
%TO.C,C2*%
X133607142Y-71788830D02*
X133654761Y-71836449D01*
X133702380Y-71979306D01*
X133702380Y-72074544D01*
X133654761Y-72217402D01*
X133559523Y-72312640D01*
X133464285Y-72360259D01*
X133273809Y-72407878D01*
X133130952Y-72407878D01*
X132940476Y-72360259D01*
X132845238Y-72312640D01*
X132750000Y-72217402D01*
X132702380Y-72074544D01*
X132702380Y-71979306D01*
X132750000Y-71836449D01*
X132797619Y-71788830D01*
X132797619Y-71407878D02*
X132750000Y-71360259D01*
X132702380Y-71265021D01*
X132702380Y-71026925D01*
X132750000Y-70931687D01*
X132797619Y-70884068D01*
X132892857Y-70836449D01*
X132988095Y-70836449D01*
X133130952Y-70884068D01*
X133702380Y-71455497D01*
X133702380Y-70836449D01*
%TO.C,R2*%
X128083333Y-88952380D02*
X127750000Y-88476190D01*
X127511904Y-88952380D02*
X127511904Y-87952380D01*
X127892857Y-87952380D01*
X127988095Y-88000000D01*
X128035714Y-88047619D01*
X128083333Y-88142857D01*
X128083333Y-88285714D01*
X128035714Y-88380952D01*
X127988095Y-88428571D01*
X127892857Y-88476190D01*
X127511904Y-88476190D01*
X128464285Y-88047619D02*
X128511904Y-88000000D01*
X128607142Y-87952380D01*
X128845238Y-87952380D01*
X128940476Y-88000000D01*
X128988095Y-88047619D01*
X129035714Y-88142857D01*
X129035714Y-88238095D01*
X128988095Y-88380952D01*
X128416666Y-88952380D01*
X129035714Y-88952380D01*
%TO.C,J4*%
X132666666Y-84082380D02*
X132666666Y-84796666D01*
X132619047Y-84939523D01*
X132523809Y-85034761D01*
X132380952Y-85082380D01*
X132285714Y-85082380D01*
X133571428Y-84415714D02*
X133571428Y-85082380D01*
X133333333Y-84034761D02*
X133095238Y-84749047D01*
X133714285Y-84749047D01*
%TO.C,J7*%
X123956380Y-98333333D02*
X124670666Y-98333333D01*
X124813523Y-98380952D01*
X124908761Y-98476190D01*
X124956380Y-98619047D01*
X124956380Y-98714285D01*
X123956380Y-97952380D02*
X123956380Y-97285714D01*
X124956380Y-97714285D01*
%TO.C,J1*%
X137416666Y-64702380D02*
X137416666Y-65416666D01*
X137369047Y-65559523D01*
X137273809Y-65654761D01*
X137130952Y-65702380D01*
X137035714Y-65702380D01*
X138416666Y-65702380D02*
X137845238Y-65702380D01*
X138130952Y-65702380D02*
X138130952Y-64702380D01*
X138035714Y-64845238D01*
X137940476Y-64940476D01*
X137845238Y-64988095D01*
%TO.C,J8*%
X101666666Y-59122380D02*
X101666666Y-59836666D01*
X101619047Y-59979523D01*
X101523809Y-60074761D01*
X101380952Y-60122380D01*
X101285714Y-60122380D01*
X102285714Y-59550952D02*
X102190476Y-59503333D01*
X102142857Y-59455714D01*
X102095238Y-59360476D01*
X102095238Y-59312857D01*
X102142857Y-59217619D01*
X102190476Y-59170000D01*
X102285714Y-59122380D01*
X102476190Y-59122380D01*
X102571428Y-59170000D01*
X102619047Y-59217619D01*
X102666666Y-59312857D01*
X102666666Y-59360476D01*
X102619047Y-59455714D01*
X102571428Y-59503333D01*
X102476190Y-59550952D01*
X102285714Y-59550952D01*
X102190476Y-59598571D01*
X102142857Y-59646190D01*
X102095238Y-59741428D01*
X102095238Y-59931904D01*
X102142857Y-60027142D01*
X102190476Y-60074761D01*
X102285714Y-60122380D01*
X102476190Y-60122380D01*
X102571428Y-60074761D01*
X102619047Y-60027142D01*
X102666666Y-59931904D01*
X102666666Y-59741428D01*
X102619047Y-59646190D01*
X102571428Y-59598571D01*
X102476190Y-59550952D01*
%TO.C,R8*%
X128083333Y-92952380D02*
X127750000Y-92476190D01*
X127511904Y-92952380D02*
X127511904Y-91952380D01*
X127892857Y-91952380D01*
X127988095Y-92000000D01*
X128035714Y-92047619D01*
X128083333Y-92142857D01*
X128083333Y-92285714D01*
X128035714Y-92380952D01*
X127988095Y-92428571D01*
X127892857Y-92476190D01*
X127511904Y-92476190D01*
X128654761Y-92380952D02*
X128559523Y-92333333D01*
X128511904Y-92285714D01*
X128464285Y-92190476D01*
X128464285Y-92142857D01*
X128511904Y-92047619D01*
X128559523Y-92000000D01*
X128654761Y-91952380D01*
X128845238Y-91952380D01*
X128940476Y-92000000D01*
X128988095Y-92047619D01*
X129035714Y-92142857D01*
X129035714Y-92190476D01*
X128988095Y-92285714D01*
X128940476Y-92333333D01*
X128845238Y-92380952D01*
X128654761Y-92380952D01*
X128559523Y-92428571D01*
X128511904Y-92476190D01*
X128464285Y-92571428D01*
X128464285Y-92761904D01*
X128511904Y-92857142D01*
X128559523Y-92904761D01*
X128654761Y-92952380D01*
X128845238Y-92952380D01*
X128940476Y-92904761D01*
X128988095Y-92857142D01*
X129035714Y-92761904D01*
X129035714Y-92571428D01*
X128988095Y-92476190D01*
X128940476Y-92428571D01*
X128845238Y-92380952D01*
%TO.C,J2*%
X136282380Y-52333333D02*
X136996666Y-52333333D01*
X137139523Y-52380952D01*
X137234761Y-52476190D01*
X137282380Y-52619047D01*
X137282380Y-52714285D01*
X136377619Y-51904761D02*
X136330000Y-51857142D01*
X136282380Y-51761904D01*
X136282380Y-51523809D01*
X136330000Y-51428571D01*
X136377619Y-51380952D01*
X136472857Y-51333333D01*
X136568095Y-51333333D01*
X136710952Y-51380952D01*
X137282380Y-51952380D01*
X137282380Y-51333333D01*
D11*
%TO.C,J9*%
X141926000Y-85770000D02*
X144586000Y-85770000D01*
X141926000Y-83170000D02*
X143256000Y-83170000D01*
X144586000Y-85770000D02*
X144586000Y-95990000D01*
X141926000Y-84500000D02*
X141926000Y-83170000D01*
X141926000Y-95990000D02*
X144586000Y-95990000D01*
X141926000Y-85770000D02*
X141926000Y-95990000D01*
%TO.C,R5*%
X137880000Y-80846359D02*
X137880000Y-81153641D01*
X137120000Y-80846359D02*
X137120000Y-81153641D01*
%TO.C,J6*%
X133230000Y-54670000D02*
X110310000Y-54670000D01*
X133230000Y-57330000D02*
X110310000Y-57330000D01*
X110310000Y-54670000D02*
X110310000Y-57330000D01*
X135830000Y-54670000D02*
X135830000Y-56000000D01*
X134500000Y-54670000D02*
X135830000Y-54670000D01*
X133230000Y-54670000D02*
X133230000Y-57330000D01*
%TO.C,SW1*%
X103130000Y-54670000D02*
X103130000Y-57330000D01*
X105730000Y-57330000D02*
X103130000Y-57330000D01*
X108330000Y-54670000D02*
X108330000Y-56000000D01*
X105730000Y-54670000D02*
X105730000Y-57330000D01*
X105730000Y-54670000D02*
X103130000Y-54670000D01*
X107000000Y-54670000D02*
X108330000Y-54670000D01*
%TO.C,C1*%
X131640000Y-73892164D02*
X131640000Y-74107836D01*
X132360000Y-73892164D02*
X132360000Y-74107836D01*
%TO.C,R3*%
X136380000Y-80846359D02*
X136380000Y-81153641D01*
X135620000Y-80846359D02*
X135620000Y-81153641D01*
%TO.C,R7*%
X110380000Y-65153641D02*
X110380000Y-64846359D01*
X109620000Y-65153641D02*
X109620000Y-64846359D01*
%TO.C,J5*%
X135670000Y-88230000D02*
X135670000Y-93370000D01*
X135670000Y-88230000D02*
X138330000Y-88230000D01*
X135670000Y-86960000D02*
X135670000Y-85630000D01*
X138330000Y-88230000D02*
X138330000Y-93370000D01*
X135670000Y-93370000D02*
X138330000Y-93370000D01*
X135670000Y-85630000D02*
X137000000Y-85630000D01*
%TO.C,C6*%
X139607836Y-71610000D02*
X139392164Y-71610000D01*
X139607836Y-70890000D02*
X139392164Y-70890000D01*
%TO.C,C5*%
X139607836Y-68390000D02*
X139392164Y-68390000D01*
X139607836Y-69110000D02*
X139392164Y-69110000D01*
%TO.C,R4*%
X135120000Y-97653641D02*
X135120000Y-97346359D01*
X135880000Y-97653641D02*
X135880000Y-97346359D01*
%TO.C,C9*%
X107840000Y-63892164D02*
X107840000Y-64107836D01*
X108560000Y-63892164D02*
X108560000Y-64107836D01*
%TO.C,U3*%
X116940000Y-90000000D02*
X116940000Y-91950000D01*
X116940000Y-90000000D02*
X116940000Y-88050000D01*
X122060000Y-90000000D02*
X122060000Y-86550000D01*
X122060000Y-90000000D02*
X122060000Y-91950000D01*
%TO.C,C3*%
X132360000Y-79392164D02*
X132360000Y-79607836D01*
X131640000Y-79392164D02*
X131640000Y-79607836D01*
%TO.C,R9*%
X126403641Y-94380000D02*
X126096359Y-94380000D01*
X126403641Y-93620000D02*
X126096359Y-93620000D01*
%TO.C,J11*%
X141670000Y-69995000D02*
X144330000Y-69995000D01*
X141670000Y-69995000D02*
X141670000Y-72595000D01*
X141670000Y-72595000D02*
X144330000Y-72595000D01*
X144330000Y-69995000D02*
X144330000Y-72595000D01*
X141670000Y-67395000D02*
X143000000Y-67395000D01*
X141670000Y-68725000D02*
X141670000Y-67395000D01*
%TO.C,U4*%
X114560000Y-90000000D02*
X114560000Y-91950000D01*
X109440000Y-90000000D02*
X109440000Y-91950000D01*
X114560000Y-90000000D02*
X114560000Y-86550000D01*
X109440000Y-90000000D02*
X109440000Y-88050000D01*
%TO.C,Y1*%
X126350000Y-71000000D02*
X126350000Y-75000000D01*
X129650000Y-71000000D02*
X126350000Y-71000000D01*
%TO.C,J12*%
X148330000Y-69995000D02*
X148330000Y-72595000D01*
X145670000Y-69995000D02*
X145670000Y-72595000D01*
X145670000Y-67395000D02*
X147000000Y-67395000D01*
X145670000Y-72595000D02*
X148330000Y-72595000D01*
X145670000Y-68725000D02*
X145670000Y-67395000D01*
X145670000Y-69995000D02*
X148330000Y-69995000D01*
%TO.C,J3*%
X110730000Y-50670000D02*
X103050000Y-50670000D01*
X110730000Y-53330000D02*
X103050000Y-53330000D01*
X112000000Y-50670000D02*
X113330000Y-50670000D01*
X110730000Y-50670000D02*
X110730000Y-53330000D01*
X103050000Y-50670000D02*
X103050000Y-53330000D01*
X113330000Y-50670000D02*
X113330000Y-52000000D01*
%TO.C,R1*%
X126403641Y-86620000D02*
X126096359Y-86620000D01*
X126403641Y-87380000D02*
X126096359Y-87380000D01*
%TO.C,U2*%
X148600000Y-80910000D02*
X142590000Y-80910000D01*
X146350000Y-74090000D02*
X142590000Y-74090000D01*
X142590000Y-74090000D02*
X142590000Y-75350000D01*
X142590000Y-80910000D02*
X142590000Y-79650000D01*
%TO.C,C8*%
X138107836Y-75640000D02*
X137892164Y-75640000D01*
X138107836Y-76360000D02*
X137892164Y-76360000D01*
%TO.C,C7*%
X138107836Y-78360000D02*
X137892164Y-78360000D01*
X138107836Y-77640000D02*
X137892164Y-77640000D01*
%TO.C,U1*%
X112214000Y-78110000D02*
X112214000Y-77660000D01*
X112214000Y-70890000D02*
X112214000Y-71340000D01*
X118984000Y-70890000D02*
X119434000Y-70890000D01*
X112664000Y-70890000D02*
X112214000Y-70890000D01*
X119434000Y-70890000D02*
X119434000Y-71340000D01*
X112664000Y-78110000D02*
X112214000Y-78110000D01*
X119434000Y-78110000D02*
X119434000Y-77660000D01*
X118984000Y-78110000D02*
X119434000Y-78110000D01*
X119434000Y-77660000D02*
X120724000Y-77660000D01*
%TO.C,J10*%
X148650000Y-85770000D02*
X148650000Y-95990000D01*
X145990000Y-83170000D02*
X147320000Y-83170000D01*
X145990000Y-85770000D02*
X148650000Y-85770000D01*
X145990000Y-84500000D02*
X145990000Y-83170000D01*
X145990000Y-95990000D02*
X148650000Y-95990000D01*
X145990000Y-85770000D02*
X145990000Y-95990000D01*
%TO.C,C4*%
X132360000Y-77357836D02*
X132360000Y-77142164D01*
X131640000Y-77357836D02*
X131640000Y-77142164D01*
%TO.C,R6*%
X137880000Y-97653641D02*
X137880000Y-97346359D01*
X137120000Y-97653641D02*
X137120000Y-97346359D01*
%TO.C,Y2*%
X126350000Y-76500000D02*
X126350000Y-80500000D01*
X129650000Y-76500000D02*
X126350000Y-76500000D01*
%TO.C,C2*%
X131640000Y-71837836D02*
X131640000Y-71622164D01*
X132360000Y-71837836D02*
X132360000Y-71622164D01*
%TO.C,R2*%
X126403641Y-88880000D02*
X126096359Y-88880000D01*
X126403641Y-88120000D02*
X126096359Y-88120000D01*
%TO.C,J4*%
X131670000Y-86960000D02*
X131670000Y-85630000D01*
X131670000Y-85630000D02*
X133000000Y-85630000D01*
X131670000Y-88230000D02*
X131670000Y-93370000D01*
X134330000Y-88230000D02*
X134330000Y-93370000D01*
X131670000Y-93370000D02*
X134330000Y-93370000D01*
X131670000Y-88230000D02*
X134330000Y-88230000D01*
%TO.C,J7*%
X123504000Y-96670000D02*
X123504000Y-98000000D01*
X120904000Y-96670000D02*
X108144000Y-96670000D01*
X108144000Y-96670000D02*
X108144000Y-99330000D01*
X122174000Y-96670000D02*
X123504000Y-96670000D01*
X120904000Y-99330000D02*
X108144000Y-99330000D01*
X120904000Y-96670000D02*
X120904000Y-99330000D01*
%TO.C,J1*%
X139400000Y-65050000D02*
X139400000Y-63750000D01*
X139400000Y-50550000D02*
X148600000Y-50550000D01*
X139400000Y-59150000D02*
X139400000Y-50550000D01*
X141400000Y-65050000D02*
X139400000Y-65050000D01*
X148600000Y-65050000D02*
X146600000Y-65050000D01*
X148900000Y-65350000D02*
X148900000Y-64050000D01*
X147200000Y-65350000D02*
X148900000Y-65350000D01*
X148600000Y-50550000D02*
X148600000Y-65050000D01*
%TO.C,J8*%
X100670000Y-63270000D02*
X103330000Y-63270000D01*
X103330000Y-63270000D02*
X103330000Y-96350000D01*
X100670000Y-62000000D02*
X100670000Y-60670000D01*
X100670000Y-60670000D02*
X102000000Y-60670000D01*
X100670000Y-96350000D02*
X103330000Y-96350000D01*
X100670000Y-63270000D02*
X100670000Y-96350000D01*
%TO.C,R8*%
X126403641Y-92880000D02*
X126096359Y-92880000D01*
X126403641Y-92120000D02*
X126096359Y-92120000D01*
%TO.C,J2*%
X133230000Y-50670000D02*
X115390000Y-50670000D01*
X135830000Y-50670000D02*
X135830000Y-52000000D01*
X133230000Y-53330000D02*
X115390000Y-53330000D01*
X115390000Y-50670000D02*
X115390000Y-53330000D01*
X133230000Y-50670000D02*
X133230000Y-53330000D01*
X134500000Y-50670000D02*
X135830000Y-50670000D01*
%TD*%
%LPC*%
D12*
%TO.C,J9*%
X143256000Y-84500000D03*
D13*
X143256000Y-87040000D03*
X143256000Y-89580000D03*
X143256000Y-92120000D03*
X143256000Y-94660000D03*
%TD*%
D14*
%TO.C,R5*%
X137500000Y-80490000D03*
X137500000Y-81510000D03*
%TD*%
D12*
%TO.C,J6*%
X134500000Y-56000000D03*
D13*
X131960000Y-56000000D03*
X129420000Y-56000000D03*
X126880000Y-56000000D03*
X124340000Y-56000000D03*
X121800000Y-56000000D03*
X119260000Y-56000000D03*
X116720000Y-56000000D03*
X114180000Y-56000000D03*
X111640000Y-56000000D03*
%TD*%
D12*
%TO.C,SW1*%
X107000000Y-56000000D03*
D13*
X104460000Y-56000000D03*
%TD*%
D15*
%TO.C,C1*%
X132000000Y-73520000D03*
X132000000Y-74480000D03*
%TD*%
D14*
%TO.C,R3*%
X136000000Y-80490000D03*
X136000000Y-81510000D03*
%TD*%
D16*
%TO.C,R7*%
X110000000Y-65510000D03*
X110000000Y-64490000D03*
%TD*%
D12*
%TO.C,J5*%
X137000000Y-86960000D03*
D13*
X137000000Y-89500000D03*
X137000000Y-92040000D03*
%TD*%
D17*
%TO.C,C6*%
X139980000Y-71250000D03*
X139020000Y-71250000D03*
%TD*%
%TO.C,C5*%
X139980000Y-68750000D03*
X139020000Y-68750000D03*
%TD*%
D16*
%TO.C,R4*%
X135500000Y-98010000D03*
X135500000Y-96990000D03*
%TD*%
D15*
%TO.C,C9*%
X108200000Y-63520000D03*
X108200000Y-64480000D03*
%TD*%
D18*
%TO.C,U3*%
X121405000Y-87525000D03*
X120135000Y-87525000D03*
X118865000Y-87525000D03*
X117595000Y-87525000D03*
X117595000Y-92475000D03*
X118865000Y-92475000D03*
X120135000Y-92475000D03*
X121405000Y-92475000D03*
%TD*%
D15*
%TO.C,C3*%
X132000000Y-79020000D03*
X132000000Y-79980000D03*
%TD*%
D19*
%TO.C,R9*%
X126760000Y-94000000D03*
X125740000Y-94000000D03*
%TD*%
D12*
%TO.C,J11*%
X143000000Y-68725000D03*
D13*
X143000000Y-71265000D03*
%TD*%
D18*
%TO.C,U4*%
X113905000Y-87525000D03*
X112635000Y-87525000D03*
X111365000Y-87525000D03*
X110095000Y-87525000D03*
X110095000Y-92475000D03*
X111365000Y-92475000D03*
X112635000Y-92475000D03*
X113905000Y-92475000D03*
%TD*%
D20*
%TO.C,Y1*%
X127150000Y-71900000D03*
X127150000Y-74100000D03*
X128850000Y-74100000D03*
X128850000Y-71900000D03*
%TD*%
D12*
%TO.C,J12*%
X147000000Y-68725000D03*
D13*
X147000000Y-71265000D03*
%TD*%
D12*
%TO.C,J3*%
X112000000Y-52000000D03*
D13*
X109460000Y-52000000D03*
X106920000Y-52000000D03*
X104380000Y-52000000D03*
%TD*%
D19*
%TO.C,R1*%
X126760000Y-87000000D03*
X125740000Y-87000000D03*
%TD*%
D21*
%TO.C,U2*%
X147650000Y-79800000D03*
D22*
X141350000Y-77500000D03*
D21*
X147650000Y-77500000D03*
X147650000Y-75200000D03*
%TD*%
D17*
%TO.C,C8*%
X138480000Y-76000000D03*
X137520000Y-76000000D03*
%TD*%
%TO.C,C7*%
X138480000Y-78000000D03*
X137520000Y-78000000D03*
%TD*%
D23*
%TO.C,U1*%
X119986500Y-77250000D03*
X119986500Y-76750000D03*
X119986500Y-76250000D03*
X119986500Y-75750000D03*
X119986500Y-75250000D03*
X119986500Y-74750000D03*
X119986500Y-74250000D03*
X119986500Y-73750000D03*
X119986500Y-73250000D03*
X119986500Y-72750000D03*
X119986500Y-72250000D03*
X119986500Y-71750000D03*
D24*
X118574000Y-70337500D03*
X118074000Y-70337500D03*
X117574000Y-70337500D03*
X117074000Y-70337500D03*
X116574000Y-70337500D03*
X116074000Y-70337500D03*
X115574000Y-70337500D03*
X115074000Y-70337500D03*
X114574000Y-70337500D03*
X114074000Y-70337500D03*
X113574000Y-70337500D03*
X113074000Y-70337500D03*
D23*
X111661500Y-71750000D03*
X111661500Y-72250000D03*
X111661500Y-72750000D03*
X111661500Y-73250000D03*
X111661500Y-73750000D03*
X111661500Y-74250000D03*
X111661500Y-74750000D03*
X111661500Y-75250000D03*
X111661500Y-75750000D03*
X111661500Y-76250000D03*
X111661500Y-76750000D03*
X111661500Y-77250000D03*
D24*
X113074000Y-78662500D03*
X113574000Y-78662500D03*
X114074000Y-78662500D03*
X114574000Y-78662500D03*
X115074000Y-78662500D03*
X115574000Y-78662500D03*
X116074000Y-78662500D03*
X116574000Y-78662500D03*
X117074000Y-78662500D03*
X117574000Y-78662500D03*
X118074000Y-78662500D03*
X118574000Y-78662500D03*
%TD*%
D12*
%TO.C,J10*%
X147320000Y-84500000D03*
D13*
X147320000Y-87040000D03*
X147320000Y-89580000D03*
X147320000Y-92120000D03*
X147320000Y-94660000D03*
%TD*%
D25*
%TO.C,C4*%
X132000000Y-77730000D03*
X132000000Y-76770000D03*
%TD*%
D16*
%TO.C,R6*%
X137500000Y-98010000D03*
X137500000Y-96990000D03*
%TD*%
D20*
%TO.C,Y2*%
X127150000Y-77400000D03*
X127150000Y-79600000D03*
X128850000Y-79600000D03*
X128850000Y-77400000D03*
%TD*%
D25*
%TO.C,C2*%
X132000000Y-72210000D03*
X132000000Y-71250000D03*
%TD*%
D19*
%TO.C,R2*%
X126760000Y-88500000D03*
X125740000Y-88500000D03*
%TD*%
D12*
%TO.C,J4*%
X133000000Y-86960000D03*
D13*
X133000000Y-89500000D03*
X133000000Y-92040000D03*
%TD*%
D12*
%TO.C,J7*%
X122174000Y-98000000D03*
D13*
X119634000Y-98000000D03*
X117094000Y-98000000D03*
X114554000Y-98000000D03*
X112014000Y-98000000D03*
X109474000Y-98000000D03*
%TD*%
D26*
%TO.C,J1*%
X144000000Y-64350000D03*
D27*
X144000000Y-58050000D03*
D28*
X139200000Y-61450000D03*
%TD*%
D12*
%TO.C,J8*%
X102000000Y-62000000D03*
D13*
X102000000Y-64540000D03*
X102000000Y-67080000D03*
X102000000Y-69620000D03*
X102000000Y-72160000D03*
X102000000Y-74700000D03*
X102000000Y-77240000D03*
X102000000Y-79780000D03*
X102000000Y-82320000D03*
X102000000Y-84860000D03*
X102000000Y-87400000D03*
X102000000Y-89940000D03*
X102000000Y-92480000D03*
X102000000Y-95020000D03*
%TD*%
D19*
%TO.C,R8*%
X126760000Y-92500000D03*
X125740000Y-92500000D03*
%TD*%
D12*
%TO.C,J2*%
X134500000Y-52000000D03*
D13*
X131960000Y-52000000D03*
X129420000Y-52000000D03*
X126880000Y-52000000D03*
X124340000Y-52000000D03*
X121800000Y-52000000D03*
X119260000Y-52000000D03*
X116720000Y-52000000D03*
%TD*%
M02*
