M48
; DRILL file {KiCad (5.99.0-12896-g1860893d63)} date 2021 October 23, Saturday 11:38:19
; FORMAT={-:-/ absolute / metric / decimal}
; #@! TF.CreationDate,2021-10-23T11:38:19+08:00
; #@! TF.GenerationSoftware,Kicad,Pcbnew,(5.99.0-12896-g1860893d63)
; #@! TF.FileFunction,Plated,1,4,PTH
FMAT,2
METRIC
; #@! TA.AperFunction,Plated,PTH,ViaDrill
T1C0.200
; #@! TA.AperFunction,Plated,PTH,ComponentDrill
T2C1.000
%
G90
G05
T1
X102.0Y-59.0
X104.0Y-59.0
X104.0Y-75.0
X105.0Y-61.0
X105.0Y-86.0
X106.0Y-69.0
X106.0Y-73.0
X106.0Y-79.5
X106.0Y-80.2
X106.0Y-85.0
X106.0Y-94.0
X106.0Y-96.0
X106.0Y-97.5
X107.0Y-93.0
X107.2Y-75.8
X108.0Y-69.0
X108.0Y-90.0
X108.0Y-92.0
X108.0Y-94.0
X108.0Y-96.0
X108.0Y-97.5
X109.6Y-73.5
X109.6Y-74.2
X109.9Y-74.8
X110.45Y-77.6
X110.5Y-89.2
X110.7Y-79.2
X111.1Y-80.7
X111.8Y-68.05
X112.0Y-86.0
X112.0Y-90.5
X112.8Y-72.0
X112.9Y-75.4
X113.0Y-68.05
X113.0Y-83.2
X113.0Y-90.5
X113.05Y-76.25
X113.2Y-72.6
X113.4Y-77.0
X113.6Y-73.1
X113.6Y-75.4
X114.0Y-60.0
X114.0Y-80.3
X114.0Y-94.5
X114.0Y-96.0
X114.1Y-73.5
X114.5Y-77.3
X114.5Y-80.6
X114.8Y-76.5
X115.0Y-61.0
X115.0Y-81.0
X115.58Y-76.5
X116.0Y-60.0
X116.0Y-81.2
X116.0Y-81.8
X116.0Y-94.5
X116.0Y-96.0
X116.08Y-77.0
X116.65Y-71.75
X116.65Y-72.9
X116.7Y-76.2
X116.9Y-74.7
X116.9Y-75.4
X117.0Y-61.0
X117.4Y-76.6
X118.0Y-72.7
X118.0Y-83.0
X118.0Y-94.5
X118.0Y-96.0
X118.1Y-71.7
X118.4Y-72.3
X118.574Y-68.904
X118.6Y-85.675
X118.9Y-81.85
X119.0Y-71.37
X119.5Y-91.0
X119.7Y-80.7
X119.8Y-85.625
X120.0Y-83.0
X120.25Y-58.0
X120.25Y-59.0
X120.5Y-63.0
X120.5Y-91.0
X121.5Y-72.9
X121.5Y-94.5
X121.7Y-77.7
X121.75Y-61.75
X122.0Y-83.0
X122.45Y-73.75
X122.5Y-59.0
X123.0Y-58.0
X123.0Y-60.5
X123.0Y-84.5
X123.0Y-86.0
X123.0Y-93.0
X123.0Y-94.5
X123.0Y-96.0
X124.0Y-68.0
X124.25Y-59.25
X125.0Y-58.0
X125.0Y-96.0
X125.0Y-98.0
X125.5Y-90.0
X125.5Y-91.0
X126.0Y-65.0
X126.5Y-59.0
X126.75Y-58.0
X127.0Y-96.0
X127.0Y-98.0
X127.5Y-60.5
X127.5Y-90.0
X127.5Y-91.0
X128.0Y-68.0
X128.0Y-87.0
X128.0Y-92.5
X128.5Y-59.5
X129.25Y-58.75
X129.5Y-58.0
X130.0Y-61.0
X130.0Y-65.0
X131.0Y-60.0
X131.75Y-59.0
X132.0Y-54.0
X132.0Y-58.0
X132.0Y-68.0
X133.0Y-62.0
X134.0Y-65.0
X134.75Y-54.0
X135.25Y-85.0
X135.25Y-94.0
X136.0Y-59.0
X136.0Y-62.0
X136.25Y-83.5
X136.25Y-95.5
X139.075Y-80.8
X141.0Y-76.0
X141.0Y-77.0
X141.0Y-78.0
X141.0Y-79.0
X141.5Y-76.5
X141.5Y-77.5
X141.5Y-78.5
X142.0Y-76.0
X142.0Y-77.0
X142.0Y-78.0
X142.0Y-79.0
X147.0Y-77.25
X147.0Y-79.5
X147.25Y-77.75
X147.25Y-80.0
X147.5Y-77.25
X147.5Y-79.5
X147.75Y-77.75
X147.75Y-80.0
X148.0Y-77.25
X148.0Y-79.5
X148.25Y-77.75
X148.25Y-80.0
T2
X102.0Y-62.0
X102.0Y-64.54
X102.0Y-67.08
X102.0Y-69.62
X102.0Y-72.16
X102.0Y-74.7
X102.0Y-77.24
X102.0Y-79.78
X102.0Y-82.32
X102.0Y-84.86
X102.0Y-87.4
X102.0Y-89.94
X102.0Y-92.48
X102.0Y-95.02
X104.38Y-52.0
X104.46Y-56.0
X106.92Y-52.0
X107.0Y-56.0
X109.46Y-52.0
X109.474Y-98.0
X111.64Y-56.0
X112.0Y-52.0
X112.014Y-98.0
X114.18Y-56.0
X114.554Y-98.0
X116.72Y-52.0
X116.72Y-56.0
X117.094Y-98.0
X119.26Y-52.0
X119.26Y-56.0
X119.634Y-98.0
X121.8Y-52.0
X121.8Y-56.0
X122.174Y-98.0
X124.34Y-52.0
X124.34Y-56.0
X126.88Y-52.0
X126.88Y-56.0
X129.42Y-52.0
X129.42Y-56.0
X131.96Y-52.0
X131.96Y-56.0
X133.0Y-86.96
X133.0Y-89.5
X133.0Y-92.04
X134.5Y-52.0
X134.5Y-56.0
X137.0Y-86.96
X137.0Y-89.5
X137.0Y-92.04
X143.0Y-68.725
X143.0Y-71.265
X143.256Y-84.5
X143.256Y-87.04
X143.256Y-89.58
X143.256Y-92.12
X143.256Y-94.66
X147.0Y-68.725
X147.0Y-71.265
X147.32Y-84.5
X147.32Y-87.04
X147.32Y-89.58
X147.32Y-92.12
X147.32Y-94.66
T2
X139.2Y-62.55G85X139.2Y-60.35
G05
X145.1Y-58.05G85X142.9Y-58.05
G05
X145.3Y-64.35G85X142.7Y-64.35
G05
T0
M30
